<?xml version="1.0" encoding="UTF-8"?>
<svg version="1.1" xmlns="http://www.w3.org/2000/svg" width="472" height="365">
<path d="M0 0 C155.76 0 311.52 0 472 0 C472 120.45 472 240.9 472 365 C316.24 365 160.48 365 0 365 C0 244.55 0 124.1 0 0 Z " fill="#FCFCFB" transform="translate(0,0)"/>
<path d="M0 0 C4.45014921 2.89777158 7.29591225 5.53154592 8.6875 10.75 C9.25313527 15.3779249 9.12843327 18.77627236 7.1875 23.0625 C3.10254254 27.45382926 -1.3722995 29.92025937 -7.4375 30.1875 C-11.56652611 29.72131963 -13.86610599 29.04759601 -17.3125 26.75 C-17.87582031 25.73421875 -18.43914062 24.7184375 -19.01953125 23.671875 C-21.09560386 21.1233169 -22.23671446 20.76296822 -25.53979492 20.19775391 C-28.93024778 20.04489773 -32.26921139 19.99766946 -35.65966797 20.07763672 C-37.80718996 20.12488318 -39.94974554 20.11874871 -42.09765625 20.10546875 C-51.03342855 20.00347517 -51.03342855 20.00347517 -58.3125 24.75 C-59.50249535 27.20415822 -60.42918681 29.42645515 -61.28662109 31.98779297 C-61.5364292 32.69324186 -61.7862373 33.39869076 -62.04361534 34.12551689 C-62.81757914 36.32802629 -63.56742294 38.53757046 -64.3125 40.75 C-64.76775465 42.07915204 -65.22309448 43.4082749 -65.67852783 44.73736572 C-67.05774751 48.79697625 -68.39377424 52.87027024 -69.7265625 56.9453125 C-70.2235173 58.45686015 -70.72071601 59.96832764 -71.21813965 61.47972107 C-72.52701643 65.45997482 -73.83143846 69.44167427 -75.13474274 73.42375565 C-75.94248377 75.89021808 -76.7517212 78.35618452 -77.5614624 80.82199097 C-84.08403797 100.68542003 -90.59797223 120.55136356 -96.73681641 140.53759766 C-98.8985917 147.54227721 -101.27186357 154.4320271 -103.88987732 161.27809143 C-107.52478584 170.84133458 -110.72629915 180.5587486 -114 190.25 C-114.99776483 193.19903001 -115.9962983 196.14779439 -116.99629211 199.09606934 C-117.61209905 200.912084 -118.22660108 202.72854192 -118.83952332 204.54553223 C-119.12024185 205.374198 -119.40096039 206.20286377 -119.69018555 207.05664062 C-119.93189987 207.77227173 -120.1736142 208.48790283 -120.4226532 209.22521973 C-121.66591147 212.75274149 -122.99922788 216.247941 -124.3125 219.75 C-131.9025 220.08 -139.4925 220.41 -147.3125 220.75 C-144.6725 221.74 -142.0325 222.73 -139.3125 223.75 C-133.19553841 228.3102498 -128.00113479 234.19028399 -126.3125 241.75 C-125.16673315 252.60463331 -126.21635526 262.72712089 -132.9375 271.625 C-137.71488494 276.70784433 -145.33928629 280.43109732 -152.28125 280.98828125 C-162.24820463 281.1977637 -170.45956581 280.00653066 -178.5625 273.875 C-185.0891504 267.57759146 -189.68148792 258.53756577 -189.9375 249.4375 C-189.15719083 238.7259832 -185.4146907 231.94504358 -177.3125 224.75 C-173.8475 222.77 -173.8475 222.77 -170.3125 220.75 C-202.6525 220.75 -234.9925 220.75 -268.3125 220.75 C-265.0125 222.73 -261.7125 224.71 -258.3125 226.75 C-251.78000594 232.93196999 -248.25149727 240.18235789 -247.9375 249.125 C-248.28063719 259.06225288 -251.27030563 266.63752425 -258.3125 273.75 C-266.95838082 280.71426549 -276.48134571 281.70391437 -287.3125 280.75 C-295.19397624 278.94450407 -302.0755206 274.55729977 -306.625 267.80078125 C-310.88663924 259.82587546 -312.94379715 250.46570507 -310.77734375 241.546875 C-307.5275268 232.24138822 -301.18883688 225.0356064 -292.3125 220.75 C-293.23361572 220.85380981 -293.23361572 220.85380981 -294.17333984 220.9597168 C-300.93516309 221.58256643 -307.80928148 221.99253166 -314.3125 219.75 C-319.84029124 215.15069913 -321.77008673 207.05232022 -324.3125 200.75 C-328.6025 192.5 -332.8925 184.25 -337.3125 175.75 C-368.6625 175.42 -400.0125 175.09 -432.3125 174.75 C-430.9925 172.11 -429.6725 169.47 -428.3125 166.75 C-399.9325 166.75 -371.5525 166.75 -342.3125 166.75 C-344.9525 161.47 -347.5925 156.19 -350.3125 150.75 C-352.6225 146.13 -354.9325 141.51 -357.3125 136.75 C-385.6925 136.42 -414.0725 136.09 -443.3125 135.75 C-441.3125 130.75 -441.3125 130.75 -439.3125 128.75 C-436.81287754 128.5622299 -434.42505803 128.49805929 -431.92529297 128.52294922 C-431.16422241 128.52265717 -430.40315186 128.52236511 -429.61901855 128.52206421 C-427.09745984 128.52346019 -424.57619475 128.53903382 -422.0546875 128.5546875 C-420.30876833 128.55841668 -418.56284706 128.5612641 -416.81692505 128.56326294 C-412.2170028 128.57090689 -407.61720643 128.59056187 -403.01733398 128.6126709 C-398.3253754 128.63311296 -393.63339651 128.64226114 -388.94140625 128.65234375 C-379.73171546 128.67380708 -370.52211819 128.70795217 -361.3125 128.75 C-367.44384929 116.44821068 -367.44384929 116.44821068 -373.6796875 104.19921875 C-374.04137024 103.49576828 -374.40305298 102.79231781 -374.7756958 102.06755066 C-375.53011032 100.60072257 -376.28490952 99.13409226 -377.0401001 97.66766357 C-378.21665433 95.38083369 -379.38955058 93.09215342 -380.56201172 90.80322266 C-383.87128033 84.35279311 -387.1851211 77.91417976 -390.703125 71.57421875 C-391.17637207 70.71417236 -391.64961914 69.85412598 -392.13720703 68.96801758 C-392.96548363 67.47553344 -393.80872406 65.9911867 -394.67138672 64.51831055 C-397.35611644 59.66588783 -398.1711495 55.28207803 -397.3125 49.75 C-395.16414524 46.14383308 -393.16345926 44.30755997 -389.3125 42.75 C-386.83438897 42.50160301 -386.83438897 42.50160301 -383.99454117 42.50390434 C-382.91020774 42.49992225 -381.82587431 42.49594015 -380.7086823 42.49183738 C-378.92270481 42.50057591 -378.92270481 42.50057591 -377.10064697 42.50949097 C-375.83541159 42.50778212 -374.57017622 42.50607327 -373.26660037 42.50431263 C-369.75250576 42.49983515 -366.23853279 42.50784825 -362.72445369 42.51786876 C-358.93580422 42.5264952 -355.14716177 42.52358367 -351.35850525 42.52206421 C-344.7936668 42.52101485 -338.22886807 42.5272968 -331.66403961 42.53853989 C-322.17237256 42.55478498 -312.68072473 42.56000188 -303.18904528 42.56251587 C-287.78991904 42.56689453 -272.39081396 42.58020827 -256.99169922 42.59912109 C-242.03173936 42.61747547 -227.07178525 42.63163414 -212.11181641 42.64013672 C-211.18988567 42.64066217 -210.26795493 42.64118761 -209.31808689 42.64172898 C-204.69309145 42.64433903 -200.06809596 42.64686645 -195.44310045 42.64935279 C-157.06621881 42.67009061 -118.6893608 42.7053208 -80.3125 42.75 C-80.00094971 41.65743896 -79.68939941 40.56487793 -79.3684082 39.43920898 C-72.72574098 16.23057445 -72.72574098 16.23057445 -61.3125 9.75 C-56.63700686 7.88246513 -52.70251095 7.51018626 -47.68359375 7.51171875 C-46.22199581 7.49630936 -44.76040707 7.48000649 -43.29882812 7.46289062 C-41.01875338 7.4464129 -38.73935824 7.43753289 -36.45922852 7.44458008 C-34.24158413 7.44720394 -32.02596656 7.41907666 -29.80859375 7.38671875 C-27.83137329 7.38224731 -27.83137329 7.38224731 -25.81420898 7.37768555 C-21.47814202 6.60044033 -20.10773909 5.06174724 -17.3125 1.75 C-12.03942283 -2.49775661 -6.12613174 -2.31174783 0 0 Z " fill="#0F1937" transform="translate(450.3125,81.25)"/>
<path d="M0 0 C2.79294613 0.01070747 5.58524734 0.00006114 8.37817383 -0.01269531 C18.07338795 -0.01915556 27.33205813 0.31773913 36.86450195 2.26074219 C32.92877458 6.35571865 28.72343883 9.95076146 24.30200195 13.51074219 C23.59962402 14.07921875 22.89724609 14.64769531 22.17358398 15.23339844 C16.98091347 19.41490817 11.70794166 23.45980559 6.3215332 27.38964844 C4.33179586 28.90488562 2.6697768 30.42462177 0.92700195 32.19824219 C-3.08964843 34.90333326 -6.56407192 35.15937933 -11.3190918 35.74902344 C-36.87905205 39.17620337 -61.57185903 49.29121089 -81.13549805 66.26074219 C-81.68963379 66.73801758 -82.24376953 67.21529297 -82.81469727 67.70703125 C-96.7967033 79.87046523 -106.97740857 94.23408561 -116.13549805 110.26074219 C-128.34549805 110.26074219 -140.55549805 110.26074219 -153.13549805 110.26074219 C-152.26115652 105.014693 -150.96266617 101.3567337 -148.57299805 96.76074219 C-148.21584717 96.06368164 -147.85869629 95.36662109 -147.49072266 94.6484375 C-146.3861904 92.51157097 -145.26504138 90.38448269 -144.13549805 88.26074219 C-143.80066406 87.62974609 -143.46583008 86.99875 -143.12084961 86.34863281 C-127.45383736 57.14319339 -103.43544586 33.59110415 -74.13549805 18.26074219 C-73.53141113 17.93509277 -72.92732422 17.60944336 -72.30493164 17.27392578 C-49.82741927 5.27773066 -25.28928822 -0.11524345 0 0 Z " fill="#F04B1B" transform="translate(228.135498046875,7.7392578125)"/>
<path d="M0 0 C0.39874451 6.18820801 0.68716354 12.36881142 0.87890625 18.56689453 C0.95886851 20.66880562 1.06770195 22.76984041 1.20703125 24.86865234 C2.30179185 41.79719306 2.30179185 41.79719306 -1.49819946 47.08465576 C-5.19017409 50.71033427 -9.38475024 53.27421062 -13.89640808 55.75601196 C-17.44210344 57.85280772 -20.53161538 60.49230223 -23.6875 63.125 C-24.93716736 64.13483881 -26.18826825 65.14290874 -27.44140625 66.1484375 C-28.34270264 66.87305176 -28.34270264 66.87305176 -29.26220703 67.61230469 C-35.74552796 72.78948875 -42.38393038 77.77187813 -48.98828125 82.79296875 C-50.80476113 84.17438236 -52.62116575 85.55589493 -54.4375 86.9375 C-55.34862549 87.63037109 -56.25975098 88.32324219 -57.19848633 89.03710938 C-61.63379562 92.41532931 -66.05805635 95.80444605 -70.43115234 99.26293945 C-72.09401289 100.57730276 -73.77691938 101.86621829 -75.46264648 103.15112305 C-77.84574214 105.00604336 -79.97565936 106.94856153 -82.08081055 109.11132812 C-91.60955037 118.28139474 -100.45951746 119.23365428 -113.39396667 119.1449585 C-116.74814261 119.06897621 -120.09672933 118.95794043 -123.4487915 118.82397461 C-126.9011528 118.69946894 -130.35461758 118.64604925 -133.80859375 118.5859375 C-140.54186819 118.45475378 -147.27033084 118.25486209 -154 118 C-154 117.34 -154 116.68 -154 116 C-152.15907334 114.43735295 -150.31463476 112.99402998 -148.375 111.5625 C-147.17388089 110.65834632 -145.97338053 109.75337018 -144.7734375 108.84765625 C-144.14920898 108.37859863 -143.52498047 107.90954102 -142.88183594 107.42626953 C-139.88916698 105.15808426 -136.94552113 102.82887244 -134 100.5 C-129.52249481 96.97011168 -125.02529232 93.46840518 -120.5 90 C-115.49818707 86.1653523 -110.53279908 82.28698506 -105.58203125 78.38671875 C-99.96829805 73.96713494 -94.3266297 69.58387177 -88.68408203 65.20117188 C-83.43236795 61.11986539 -78.19859379 57.01654376 -72.97436523 52.90014648 C-69.19256905 49.92478286 -65.38443889 46.98604791 -61.5625 44.0625 C-56.90679889 40.4998458 -52.31615062 36.86409418 -47.75 33.1875 C-41.67147637 28.29595372 -35.5048316 23.5314531 -29.29516602 18.80786133 C-23.97804481 14.75995291 -18.70757843 10.65684461 -13.46459961 6.51342773 C-11.97861526 5.3394753 -10.48944894 4.16955361 -9 3 C-8.31550781 2.40445312 -7.63101563 1.80890625 -6.92578125 1.1953125 C-4.4856552 -0.3192485 -2.8228519 -0.08862139 0 0 Z " fill="#F6A43D" transform="translate(377,0)"/>
<path d="M0 0 C0.40879644 6.75649673 0.68704173 13.50977662 0.87890625 20.27587891 C0.95892877 22.57168633 1.06780413 24.86668931 1.20703125 27.15966797 C2.30144448 45.66007989 2.30144448 45.66007989 -1.49014282 51.16253662 C-5.1999888 54.8835526 -9.48337246 57.47433696 -14.09234619 59.94335938 C-16.49246916 61.27277639 -18.52651571 62.88021616 -20.60546875 64.6640625 C-21.20883057 65.16043213 -21.81219238 65.65680176 -22.43383789 66.16821289 C-23.30190063 66.88932251 -23.30190063 66.88932251 -24.1875 67.625 C-28.92322409 71.51478932 -33.68782927 75.34810755 -38.5625 79.0625 C-43.8356522 83.0841748 -49.02957269 87.19299978 -54.18579102 91.36352539 C-55.39196392 92.33554978 -56.61758378 93.28370067 -57.85668945 94.21337891 C-60.13238447 96.01170169 -60.13238447 96.01170169 -62.22729492 98.57958984 C-69.3707458 105.81338305 -75.88484431 106.84425836 -85.96208572 106.97132111 C-91.67759677 106.98566367 -97.38455503 106.86257539 -103.0970459 106.68664551 C-106.81086746 106.58330759 -110.52538164 106.53845875 -114.24023438 106.48828125 C-121.49536924 106.38186352 -128.74709397 106.21180785 -136 106 C-132.78335629 102.72249386 -129.38348583 99.86126611 -125.75 97.0625 C-120.44635557 92.93869173 -115.20290476 88.75015358 -110 84.5 C-99.03248815 75.55592716 -87.85919807 66.88177353 -76.68334961 58.20043945 C-72.00581814 54.56568566 -67.34074681 50.91577692 -62.6875 47.25 C-57.87196927 43.4578721 -53.03015477 39.70233587 -48.16577148 35.97290039 C-43.50958146 32.4002569 -38.87888433 28.79542307 -34.25 25.1875 C-27.41958579 19.8636234 -20.55745331 14.5834699 -13.65722656 9.3503418 C-10.58337687 7.01169103 -7.56762718 4.6497736 -4.640625 2.12890625 C-2 0 -2 0 0 0 Z " fill="#F04B1B" transform="translate(274,12)"/>
<path d="M0 0 C0.66 0.33 1.32 0.66 2 1 C2.67016602 3.23388672 2.67016602 3.23388672 3.25390625 6.1796875 C3.57584961 7.79230469 3.57584961 7.79230469 3.90429688 9.4375 C4.23010742 11.1390625 4.23010742 11.1390625 4.5625 12.875 C4.78357422 13.97070312 5.00464844 15.06640625 5.23242188 16.1953125 C7.61765872 28.3592998 8.20869206 40.1794567 8.1875 52.5625 C8.18656342 53.27098083 8.18562683 53.97946167 8.18466187 54.70941162 C8.04501771 103.51332547 -9.00124225 145.83798676 -40.625 182.70703125 C-42 184 -42 184 -44 184 C-46.35354789 181.75959944 -48.29687869 179.16792428 -50.3125 176.625 C-50.90095703 175.94566406 -51.48941406 175.26632812 -52.09570312 174.56640625 C-56.10853056 169.46090643 -56.10853056 169.46090643 -55.82568359 165.65356445 C-55.04620889 163.01418383 -54.06013801 160.53933035 -53 158 C-52.34076572 156.03439168 -51.69536841 154.06409892 -51.0625 152.08984375 C-50.37655134 150.03854308 -49.6890345 147.98776619 -49 145.9375 C-48.65710938 144.91333984 -48.31421875 143.88917969 -47.9609375 142.83398438 C-47.31712161 140.91113729 -46.67268119 138.98849908 -46.02734375 137.06616211 C-45.20931984 134.62472622 -44.39492301 132.18215906 -43.58203125 129.73901367 C-41.07339455 122.21099605 -38.5143877 114.70005337 -35.95703125 107.18847656 C-35.31791861 105.30961583 -34.67990128 103.43038216 -34.04296875 101.55078125 C-33.11462455 98.81159282 -32.18268198 96.07365152 -31.25 93.3359375 C-30.82799316 92.0872438 -30.82799316 92.0872438 -30.39746094 90.81332397 C-28.78873841 86.10537784 -26.98485402 81.56108456 -25 77 C-24.23094141 74.52433791 -23.50323098 72.05907757 -22.8125 69.5625 C-20.43555337 61.22537842 -17.71262284 53.02028878 -14.94482422 44.8059082 C-13.03870612 39.14017679 -11.18355707 33.46698837 -9.4375 27.75 C-6.55998545 18.40793222 -3.27812126 9.20772682 0 0 Z " fill="#F04B1C" transform="translate(389,129)"/>
<path d="M0 0 C34.32 0 68.64 0 104 0 C107 18 107 18 107 29 C76.31 29 45.62 29 14 29 C0 3.33333333 0 3.33333333 0 0 Z " fill="#FAF3F2" transform="translate(74,141)"/>
<path d="M0 0 C30.03 0 60.06 0 91 0 C95 24 95 24 96 31 C69.27 31 42.54 31 15 31 C0 2.5 0 2.5 0 0 Z " fill="#F3ECEC" transform="translate(93,179)"/>
<path d="M0 0 C0.80991898 0.00359528 1.61983795 0.00719055 2.45429993 0.01089478 C3.30300659 0.01074875 4.15171326 0.01060272 5.02613831 0.01045227 C7.84523532 0.01115168 10.66426712 0.01894539 13.48335266 0.02676392 C15.43248458 0.028628 17.38161696 0.03005195 19.33074951 0.03105164 C24.47151473 0.03487761 29.61225188 0.04470858 34.75300598 0.05575562 C39.99449789 0.06596802 45.23599431 0.07054889 50.47749329 0.07559204 C60.76982335 0.08633078 71.06213255 0.10340815 81.35444641 0.12442017 C80.89973611 1.85194037 80.44050636 3.57827128 79.97944641 5.30410767 C79.59659485 6.7463269 79.59659485 6.7463269 79.20600891 8.21768188 C78.17466308 11.73809573 76.85618107 15.07452483 75.41694641 18.44473267 C73.89763241 22.27653194 72.65794174 26.21393418 71.35444641 30.12442017 C41.65444641 30.12442017 11.95444641 30.12442017 -18.64555359 30.12442017 C-15.26760988 19.99058903 -15.26760988 19.99058903 -13.41899109 15.90567017 C-13.02711609 15.03684204 -12.63524109 14.16801392 -12.23149109 13.27285767 C-11.63207703 11.9618811 -11.63207703 11.9618811 -11.02055359 10.62442017 C-10.61320984 9.71949829 -10.20586609 8.81457642 -9.78617859 7.88223267 C-6.2172372 0.01165332 -6.2172372 0.01165332 0 0 Z " fill="#F6F6F7" transform="translate(242.6455535888672,254.87557983398438)"/>
<path d="M0 0 C27.72 0 55.44 0 84 0 C81.14315936 10.47508236 77.58683424 20.75190217 74 31 C45.29 31 16.58 31 -13 31 C-9.45661806 20.36985419 -4.51274962 10.25624914 0 0 Z " fill="#F8F9F8" transform="translate(253,217)"/>
<path d="M0 0 C26.07 0 52.14 0 79 0 C75.60079051 13.59683794 75.60079051 13.59683794 74 18.3125 C73.5359375 19.69888672 73.5359375 19.69888672 73.0625 21.11328125 C71.83181968 24.45693108 70.40351231 27.72513795 69 31 C41.94 31 14.88 31 -13 31 C-10.80248781 20.01243905 -4.6956129 10.17382795 0 0 Z " fill="#F8F9FA" transform="translate(271,178)"/>
<path d="M0 0 C31.02 0 62.04 0 94 0 C91.94831735 10.25841327 86.35886237 19.48975483 82 29 C56.26 29 30.52 29 4 29 C0 5 0 5 0 0 Z " fill="#FAFBFB" transform="translate(185,141)"/>
<path d="M0 0 C25.08 0 50.16 0 76 0 C74.03345615 6.55514618 72.03643547 13.07276285 69.875 19.5625 C69.61074219 20.36751953 69.34648437 21.17253906 69.07421875 22.00195312 C67.11974558 27.88025442 67.11974558 27.88025442 66 29 C63.56603981 29.09498646 61.16057048 29.12558417 58.72631836 29.11352539 C57.58493156 29.11374443 57.58493156 29.11374443 56.42048645 29.1139679 C53.89357702 29.11326862 51.36674038 29.10547555 48.83984375 29.09765625 C47.0924941 29.09579212 45.34514393 29.0943682 43.59779358 29.09336853 C38.98968066 29.08954293 34.38159905 29.07971229 29.77349854 29.06866455 C25.07491479 29.05845134 20.37632601 29.0538711 15.67773438 29.04882812 C6.45180913 29.03809005 -2.77409284 29.02101313 -12 29 C-8.34207511 19.1556307 -4.2186672 9.64266789 0 0 Z " fill="#FBFBFB" transform="translate(287,141)"/>
<path d="M0 0 C25.41 0 50.82 0 77 0 C81 21.33333333 81 21.33333333 81 30 C58.89 30 36.78 30 14 30 C0 3.4 0 3.4 0 0 Z " fill="#F8F4F3" transform="translate(113,218)"/>
<path d="M0 0 C23.1 0 46.2 0 70 0 C66.55358479 10.33924562 61.68564051 20.16015494 57 30 C39.51 30 22.02 30 4 30 C2.66582759 24.66331035 1.58332888 19.82866982 0.875 14.4375 C0.70742187 13.19871094 0.53984375 11.95992187 0.3671875 10.68359375 C0 7 0 7 0 0 Z " fill="#FBFCFC" transform="translate(192,179)"/>
<path d="M0 0 C21.45 0 42.9 0 65 0 C65.99 7.59 66.98 15.18 68 23 C68.495 25.97 68.495 25.97 69 29 C61.27773322 29.25377585 53.55654195 29.42875637 45.83105469 29.54931641 C43.20401839 29.59957444 40.57726138 29.66779501 37.95117188 29.75439453 C34.17247726 29.87587299 30.39747968 29.9324402 26.6171875 29.9765625 C24.85905228 30.05398178 24.85905228 30.05398178 23.06539917 30.13296509 C19.75751319 30.13523501 17.14428933 30.03555918 14 29 C11.14876916 25.9985793 9.60760405 22.78076292 8 19 C7.23236477 17.53713789 6.45573544 16.07890051 5.6640625 14.62890625 C4.98026619 13.27550563 4.30049579 11.92006255 3.625 10.5625 C3.27050781 9.86962891 2.91601562 9.17675781 2.55078125 8.46289062 C0 3.36625241 0 3.36625241 0 0 Z " fill="#F0EEED" transform="translate(132,256)"/>
<path d="M0 0 C0.99 0.495 0.99 0.495 2 1 C1.5153125 1.7528125 1.030625 2.505625 0.53125 3.28125 C-10.76322586 21.17865021 -18.42352181 39.55291329 -24 60 C-41.16 60 -58.32 60 -76 60 C-72.68579077 55.85723847 -69.94341803 53.30868327 -65.6875 50.4375 C-60.53431456 46.86053525 -55.55946891 43.13888397 -50.6875 39.1875 C-43.23012654 33.14834609 -35.62336594 27.32031773 -27.98535156 21.51220703 C-25.06609438 19.28866067 -22.1572114 17.05176034 -19.25 14.8125 C-18.23035156 14.02746094 -17.21070313 13.24242188 -16.16015625 12.43359375 C-15.11730469 11.63050781 -14.07445312 10.82742187 -13 10 C-10.56271912 8.12471509 -8.12511151 6.24985511 -5.6875 4.375 C-4.5872338 3.52865335 -3.48697282 2.68229992 -2.38671875 1.8359375 C-1.59910156 1.23007812 -0.81148438 0.62421875 0 0 Z " fill="#F5A43D" transform="translate(381,58)"/>
<path d="M0 0 C29.37 0 58.74 0 89 0 C91 11 91 11 91 16 C63.61 16 36.22 16 8 16 C5.36 10.72 2.72 5.44 0 0 Z " fill="#F14E1F" transform="translate(83,148)"/>
<path d="M0 0 C24.75 0 49.5 0 75 0 C75.99 8.415 75.99 8.415 77 17 C54.23 17 31.46 17 8 17 C0 1 0 1 0 0 Z " fill="#F34A1B" transform="translate(103,186)"/>
<path d="M0 0 C15.84 0 31.68 0 48 0 C44.625 10.125 44.625 10.125 42.51953125 14.69140625 C42.12096924 15.56224854 41.72240723 16.43309082 41.31176758 17.33032227 C40.81700928 18.39694092 40.32225098 19.46355957 39.8125 20.5625 C38.224375 24.006875 36.63625 27.45125 35 31 C25.1 31 15.2 31 5 31 C4.175 26.6275 3.35 22.255 2.5 17.75 C2.23896484 16.37682617 1.97792969 15.00365234 1.70898438 13.58886719 C1.50595703 12.50250977 1.30292969 11.41615234 1.09375 10.296875 C0.88427734 9.18666992 0.67480469 8.07646484 0.45898438 6.93261719 C0 4 0 4 0 0 Z " fill="#F5F6F6" transform="translate(197,217)"/>
<path d="M0 0 C1.44726148 0.01867523 2.89458663 0.03289856 4.3419342 0.0428772 C8.13304326 0.08087868 11.92025826 0.17892342 15.70983887 0.28991699 C19.58401809 0.39262372 23.45883324 0.43797146 27.33398438 0.48828125 C34.92364155 0.59520556 42.5101013 0.76562835 50.09765625 0.9765625 C51.43624149 3.26530423 52.76866639 5.55725906 54.09765625 7.8515625 C54.47921875 8.50253906 54.86078125 9.15351563 55.25390625 9.82421875 C58.09765625 14.75 58.09765625 14.75 58.09765625 16.9765625 C31.03765625 16.9765625 3.97765625 16.9765625 -23.90234375 16.9765625 C-19.23593638 2.9773404 -14.74227097 -0.56025577 0 0 Z " fill="#EC4F20" transform="translate(59.90234375,261.0234375)"/>
<path d="M0 0 C20.46 0 40.92 0 62 0 C65 17 65 17 65 18 C46.19 18 27.38 18 8 18 C0 2 0 2 0 0 Z " fill="#F54A1C" transform="translate(122,224)"/>
<path d="M0 0 C1.72447904 0.00031742 3.44897767 0.01165954 5.17333984 0.03173828 C6.53415176 0.03598312 6.53415176 0.03598312 7.92245483 0.04031372 C10.82652857 0.05152926 13.73029646 0.07663615 16.63427734 0.10205078 C18.60041873 0.11207881 20.56656494 0.12120497 22.53271484 0.12939453 C27.35835393 0.15147306 32.18376374 0.18601213 37.00927734 0.22705078 C38.35027784 2.66060748 39.68222591 5.09840379 41.00927734 7.53955078 C41.58162109 8.57499023 41.58162109 8.57499023 42.16552734 9.63134766 C45.00927734 14.88720703 45.00927734 14.88720703 45.00927734 18.22705078 C25.53927734 18.22705078 6.06927734 18.22705078 -13.99072266 18.22705078 C-5.02000293 0.28561133 -5.02000293 0.28561133 0 0 Z " fill="#F6A43E" transform="translate(53.99072265625,223.77294921875)"/>
<path d="M0 0 C16.5 0 33 0 50 0 C51.3547936 6.77396799 52.24411994 11.40876152 52 18 C45.98630798 18.24774368 39.97559855 18.42888752 33.95800781 18.54931641 C31.91288515 18.59952135 29.86811998 18.66770538 27.82421875 18.75439453 C10.79311447 19.45850147 10.79311447 19.45850147 6.35986328 15.85253906 C4.7864099 13.24013875 3.84587662 10.91907018 3 8 C2.38125 6.845 1.7625 5.69 1.125 4.5 C0 2 0 2 0 0 Z " fill="#F14F20" transform="translate(141,262)"/>
<path d="M0 0 C11.25687685 2.25137537 11.25687685 2.25137537 15.0703125 3.8046875 C16.32134766 4.30935547 16.32134766 4.30935547 17.59765625 4.82421875 C18.43167969 5.17097656 19.26570313 5.51773437 20.125 5.875 C20.96675781 6.21402344 21.80851562 6.55304687 22.67578125 6.90234375 C27.91590655 9.039015 32.96931352 11.40913837 38 14 C36.6402177 17.17325097 35.26411511 18.85234792 32.48046875 20.875 C31.78759766 21.38546875 31.09472656 21.8959375 30.38085938 22.421875 C29.65705078 22.94265625 28.93324219 23.4634375 28.1875 24 C26.76384217 25.04100953 25.34065443 26.08266229 23.91796875 27.125 C23.23984131 27.61460205 22.56171387 28.1042041 21.86303711 28.60864258 C20.2737802 29.79553488 18.75998058 31.08235981 17.265625 32.38671875 C15 34 15 34 12.75390625 34.20703125 C11.66916016 34.01173828 11.66916016 34.01173828 10.5625 33.8125 C9.84191406 33.69519531 9.12132812 33.57789063 8.37890625 33.45703125 C7.59386719 33.30621094 6.80882812 33.15539063 6 33 C4.02 32.67 2.04 32.34 0 32 C0 21.44 0 10.88 0 0 Z " fill="#EF4C1E" transform="translate(279,14)"/>
<path d="M0 0 C0.680625 0.7115625 0.680625 0.7115625 1.375 1.4375 C2.93258204 3.09027808 2.93258204 3.09027808 5 4 C4.69078116 5.45903258 4.37751201 6.91720722 4.0625 8.375 C3.88847656 9.18710938 3.71445313 9.99921875 3.53515625 10.8359375 C3 13 3 13 2 15 C30.71 15 59.42 15 89 15 C89 15.33 89 15.66 89 16 C60.95 16.33 32.9 16.66 4 17 C4 17.99 4 18.98 4 20 C31.06 20.33 58.12 20.66 86 21 C86 21.33 86 21.66 86 22 C42.935 22.495 42.935 22.495 -1 23 C-2.65 26.63 -4.3 30.26 -6 34 C-7.09658936 30.71023192 -6.79953138 29.28696233 -6 26 C-6.66 25.67 -7.32 25.34 -8 25 C-7.505 24.505 -7.505 24.505 -7 24 C-7.66 23.67 -8.32 23.34 -9 23 C-9.33 23.66 -9.66 24.32 -10 25 C-10 24.34 -10 23.68 -10 23 C-17.92 23 -25.84 23 -34 23 C-34 25.31 -34 27.62 -34 30 C-34.99 28.02 -34.99 28.02 -36 26 C-36.495 28.475 -36.495 28.475 -37 31 C-37.66 31 -38.32 31 -39 31 C-39 32.65 -39 34.3 -39 36 C-39.33 36 -39.66 36 -40 36 C-40.66 31.71 -41.32 27.42 -42 23 C-63.45 22.67 -84.9 22.34 -107 22 C-107 21.67 -107 21.34 -107 21 C-86.87 20.67 -66.74 20.34 -46 20 C-46.495 19.01 -46.495 19.01 -47 18 C-46.34 17.67 -45.68 17.34 -45 17 C-48.3 16.67 -51.6 16.34 -55 16 C-55 15.67 -55 15.34 -55 15 C-51.04 15 -47.08 15 -43 15 C-42.67 13.68 -42.34 12.36 -42 11 C-41.01 11.33 -40.02 11.66 -39 12 C-38.67 10.35 -38.34 8.7 -38 7 C-36 9 -36 9 -36 15 C-26.1 15 -16.2 15 -6 15 C-5.01 12.03 -4.02 9.06 -3 6 C-2.04276983 3.97918076 -1.06011943 1.96879323 0 0 Z " fill="#0B1228" transform="translate(238,233)"/>
<path d="M0 0 C1 2 1 2 0.41821289 4.01708984 C-0.08077515 5.28866943 -0.08077515 5.28866943 -0.58984375 6.5859375 C-2.3981028 11.3525301 -4.08600195 16.13909858 -5.69140625 20.9765625 C-5.92483734 21.67803406 -6.15826843 22.37950562 -6.39877319 23.10223389 C-7.12130099 25.27606481 -7.84195243 27.450512 -8.5625 29.625 C-9.04868557 31.08858903 -9.53501295 32.55213096 -10.02148438 34.015625 C-10.91957664 36.7179722 -11.8168131 39.42060021 -12.71313477 42.12353516 C-14.93093269 48.80804557 -17.1623237 55.48800318 -19.39746094 62.16673279 C-20.61377055 65.80209917 -21.82838443 69.43803149 -23.04296875 73.07397461 C-23.68045136 74.98138114 -24.31847134 76.88860816 -24.95703125 78.7956543 C-25.88946875 81.58073575 -26.81991242 84.36647678 -27.75 87.15234375 C-28.03133789 87.99119614 -28.31267578 88.83004852 -28.60253906 89.69432068 C-30.26112533 94.66961617 -31.81566291 99.66338034 -33.27490234 104.70094299 C-34.02751434 107.08723935 -34.91844623 109.37611108 -35.875 111.6875 C-38.61715833 118.33032542 -40.77799741 125.17007399 -43 132 C-43.33 132 -43.66 132 -44 132 C-44.33 130.35 -44.66 128.7 -45 127 C-46.485 127.495 -46.485 127.495 -48 128 C-45.61108547 119.58340969 -42.75876542 111.33517761 -39.90530396 103.06826782 C-38.44153211 98.82482945 -36.98617229 94.57851056 -35.53125 90.33203125 C-35.2337233 89.4636412 -34.93619659 88.59525116 -34.62965393 87.70054626 C-24.774857 58.90407482 -15.38798497 29.95117219 -6 1 C-4.7934375 1.0309375 -4.7934375 1.0309375 -3.5625 1.0625 C-1.06645115 1.29633621 -1.06645115 1.29633621 0 0 Z " fill="#F0EBEA" transform="translate(380,155)"/>
<path d="M0 0 C3.02183191 0.03706586 6.02057967 0.21926793 9.03515625 0.421875 C10.59289354 0.48213062 12.15085445 0.53687284 13.70898438 0.5859375 C17.51076372 0.71762008 21.30174255 0.92417043 25.09765625 1.171875 C26.08435384 3.06379975 27.06171645 4.96059478 28.03515625 6.859375 C28.58042969 7.91511719 29.12570313 8.97085938 29.6875 10.05859375 C31.09765625 13.171875 31.09765625 13.171875 32.09765625 18.171875 C16.25765625 18.171875 0.41765625 18.171875 -15.90234375 18.171875 C-13.94526127 8.38646259 -11.12252909 0.16737155 0 0 Z " fill="#F6A53E" transform="translate(46.90234375,184.828125)"/>
<path d="M0 0 C4.81706073 2.3630864 7.6369136 5.18293927 10 10 C10.82454452 14.68644179 10.47650352 18.02866591 8.375 22.3125 C5.26023336 25.83710435 2.61173611 28.54048449 -2.17578125 29.3828125 C-8.94158999 29.72394571 -12.34179728 27.30843921 -17.375 22.9375 C-19.90009929 18.37289743 -19.97487287 14.08534428 -19 9 C-14.77374668 1.32457865 -8.46243915 -1.17738284 0 0 Z " fill="#F4F6F6" transform="translate(175,317)"/>
<path d="M0 0 C4.2917717 2.01681001 7.2920339 4.50929888 9 9 C9.24304248 13.52869146 8.56741246 17.11105381 6.125 20.9375 C2.60818793 24.35087642 0.44378904 25.30898919 -4.375 25.375 C-8.12984113 25.30555776 -9.74319867 25.14674362 -13.0625 23.25 C-16.61301862 19.12681708 -17.54974555 15.6971059 -17.4609375 10.32421875 C-16.65549538 6.26287923 -14.05462619 3.65894922 -11 1 C-7.49985537 -0.75007232 -3.81900066 -0.56161774 0 0 Z " fill="#F7F7F7" transform="translate(297,318)"/>
<path d="M0 0 C7.92 0 15.84 0 24 0 C25.52625 2.5575 27.0525 5.115 28.625 7.75 C29.11307129 8.54889648 29.60114258 9.34779297 30.10400391 10.17089844 C30.65967041 11.13044434 30.65967041 11.13044434 31.2265625 12.109375 C31.80784912 13.08342285 31.80784912 13.08342285 32.40087891 14.07714844 C33 16 33 16 32.20507812 18.109375 C30.84971748 20.2357755 29.40936783 22.24865065 27.875 24.25 C27.33617188 24.95640625 26.79734375 25.6628125 26.2421875 26.390625 C25.83226563 26.92171875 25.42234375 27.4528125 25 28 C16.35074757 24.01981304 10.59448305 16.44340603 5 9 C4.46761719 8.29875 3.93523437 7.5975 3.38671875 6.875 C0 2.29577465 0 2.29577465 0 0 Z " fill="#F04D1F" transform="translate(98,284)"/>
<path d="M0 0 C31.35 0 62.7 0 95 0 C116 38.5 116 38.5 116 42 C115.34 42 114.68 42 114 42 C114.144375 42.825 114.28875 43.65 114.4375 44.5 C113.78736422 49.70108626 110.60076762 52.38086111 107 56 C106.34 55.67 105.68 55.34 105 55 C105.79277344 54.11248047 105.79277344 54.11248047 106.6015625 53.20703125 C107.26929687 52.41683594 107.93703125 51.62664062 108.625 50.8125 C109.29789062 50.03519531 109.97078125 49.25789063 110.6640625 48.45703125 C112.31031928 46.08450858 112.31031928 46.08450858 111.40625 43.5546875 C110.71015625 42.29011719 110.71015625 42.29011719 110 41 C109.50242187 40.06800781 109.00484375 39.13601563 108.4921875 38.17578125 C107.40945746 36.25877372 106.32611891 34.34210975 105.2421875 32.42578125 C104 30 104 30 104 28 C91.625 28.495 91.625 28.495 79 29 C79 28.34 79 27.68 79 27 C90.385 26.505 90.385 26.505 102 26 C101.505 24.515 101.505 24.515 101 23 C73.28 23 45.56 23 17 23 C17.33 22.34 17.66 21.68 18 21 C45.06 21.33 72.12 21.66 100 22 C97.69 17.71 95.38 13.42 93 9 C93 8.34 93 7.68 93 7 C93.66 7 94.32 7 95 7 C94.01 5.515 94.01 5.515 93 4 C93 3.01 93 2.02 93 1 C62.31 1 31.62 1 0 1 C0 0.67 0 0.34 0 0 Z " fill="#F2E8E5" transform="translate(18,256)"/>
<path d="M0 0 C7.92 0 15.84 0 24 0 C22.67152535 3.98542395 21.37352018 7.57986579 19.65234375 11.36328125 C19.21212891 12.33201172 18.77191406 13.30074219 18.31835938 14.29882812 C17.86267578 15.29333984 17.40699219 16.28785156 16.9375 17.3125 C16.47794922 18.32634766 16.01839844 19.34019531 15.54492188 20.38476562 C12.13127309 27.86872691 12.13127309 27.86872691 11 29 C8.66702567 29.04092937 6.33294775 29.04241723 4 29 C2.02311723 19.31451774 0.56223767 9.89538307 0 0 Z " fill="#F3F4F6" transform="translate(204,256)"/>
<path d="M0 0 C0.99 0.33 1.98 0.66 3 1 C3.495 7.435 3.495 7.435 4 14 C29.41 14 54.82 14 81 14 C81 14.99 81 15.98 81 17 C71.12554904 17.17681105 61.25098172 17.34277701 51.3761158 17.49477577 C46.79116068 17.56569313 42.20633126 17.64039044 37.62158203 17.72363281 C33.19969231 17.80378072 28.77774675 17.87412165 24.35558701 17.93757248 C22.66578263 17.96356 20.97602945 17.99312245 19.28635025 18.02626419 C16.92547218 18.07196909 14.56473419 18.10512865 12.20361328 18.13525391 C11.50014771 18.1517952 10.79668213 18.16833649 10.07189941 18.18537903 C8.38020319 18.20030084 6.68822144 18.10939444 5 18 C4.01 17.01 4.01 17.01 3 16 C2.34 16.33 1.68 16.66 1 17 C0.34 16.67 -0.32 16.34 -1 16 C-3.47072509 15.87790384 -5.91517208 15.81437914 -8.38720703 15.79467773 C-9.14827759 15.78477814 -9.90934814 15.77487854 -10.69348145 15.76467896 C-13.21489324 15.73303322 -15.73632388 15.70829443 -18.2578125 15.68359375 C-20.00373836 15.66302687 -21.74965922 15.64203047 -23.49557495 15.62062073 C-28.09539742 15.56537254 -32.69526503 15.5159754 -37.29516602 15.46777344 C-41.98718289 15.41757845 -46.67913405 15.36188195 -51.37109375 15.30664062 C-60.58067306 15.19902546 -69.79030937 15.09758796 -79 15 C-79 14.67 -79 14.34 -79 14 C-54.25 14 -29.5 14 -4 14 C-3.67 10.37 -3.34 6.74 -3 3 C-2.01 3.99 -2.01 3.99 -1 5 C-0.67 3.35 -0.34 1.7 0 0 Z " fill="#2F364C" transform="translate(185,156)"/>
<path d="M0 0 C20.46 0 40.92 0 62 0 C65 17 65 17 65 18 C46.19 18 27.38 18 8 18 C8 17.34 8 16.68 8 16 C25.82 16 43.64 16 62 16 C62 12.37 62 8.74 62 5 C61.34 5 60.68 5 60 5 C60 4.01 60 3.02 60 2 C31.785 2.495 31.785 2.495 3 3 C3 3.99 3 4.98 3 6 C0 2.25 0 2.25 0 0 Z " fill="#DF5636" transform="translate(122,224)"/>
<path d="M0 0 C0.66 0.33 1.32 0.66 2 1 C1.01 2.32 0.02 3.64 -1 5 C0.98 4.67 2.96 4.34 5 4 C1.78917192 7.32611814 -1.45343808 10.21643035 -5.1875 12.9375 C-11.56079882 17.63989651 -17.80321145 22.49846752 -24.03198242 27.39038086 C-24.77681885 27.97311768 -25.52165527 28.55585449 -26.2890625 29.15625 C-26.95631348 29.68025391 -27.62356445 30.20425781 -28.31103516 30.74414062 C-30 32 -30 32 -32 33 C-32.07332361 28.89387803 -32.04515181 26.27037823 -29.38671875 23.0390625 C-27.0031473 20.90387052 -24.5432052 18.94292353 -22 17 C-20.94209152 16.17396643 -19.88482528 15.34710984 -18.828125 14.51953125 C-16.62158097 12.80170238 -14.40412532 11.09960251 -12.17578125 9.41015625 C-9.33072788 7.25099521 -6.50431842 5.07078758 -3.6875 2.875 C-2.96949219 2.31554687 -2.25148438 1.75609375 -1.51171875 1.1796875 C-0.76341797 0.59574219 -0.76341797 0.59574219 0 0 Z " fill="#FBF0EA" transform="translate(260,14)"/>
<path d="M0 0 C29.37 0 58.74 0 89 0 C88.67 2.97 88.34 5.94 88 9 C87.67 9 87.34 9 87 9 C87 6.69 87 4.38 87 2 C44.43 2.495 44.43 2.495 1 3 C0.67 2.01 0.34 1.02 0 0 Z " fill="#DC4C29" transform="translate(83,148)"/>
<path d="M0 0 C0.73511307 0.00359528 1.47022614 0.00719055 2.22761536 0.01089478 C2.99829346 0.01074875 3.76897156 0.01060272 4.56300354 0.01045227 C7.12237823 0.01115157 9.68168104 0.01894471 12.24104309 0.02676392 C14.01081299 0.02862804 15.7805834 0.03005197 17.550354 0.03105164 C22.2176505 0.03487728 26.88491607 0.04470796 31.55220032 0.05575562 C36.31110719 0.06596873 41.07001905 0.07054904 45.82893372 0.07559204 C55.17334837 0.08633019 64.51774004 0.10340717 73.86213684 0.12442017 C73.86213684 0.45442017 73.86213684 0.78442017 73.86213684 1.12442017 C72.91222366 1.13472763 71.96231049 1.1450351 70.98361206 1.15565491 C62.0511582 1.25322111 53.11877662 1.35593882 44.18644047 1.46375942 C39.59374506 1.51902982 35.00104334 1.57245625 30.40827942 1.62173462 C25.97974353 1.66931764 21.55128755 1.72165798 17.1228466 1.77736092 C15.42950353 1.79781204 13.73613853 1.81652046 12.04275703 1.83349419 C9.67916521 1.85747745 7.3157258 1.88753982 4.95222473 1.9190979 C3.89163345 1.92773109 3.89163345 1.92773109 2.80961609 1.9365387 C-0.4456061 1.71280461 -0.4456061 1.71280461 -3.13786316 3.12442017 C23.92213684 3.45442017 50.98213684 3.78442017 78.86213684 4.12442017 C78.86213684 4.45442017 78.86213684 4.78442017 78.86213684 5.12442017 C35.79713684 5.61942017 35.79713684 5.61942017 -8.13786316 6.12442017 C-5.69279455 0.01174863 -5.69279455 0.01174863 0 0 Z " fill="#222B3E" transform="translate(15.137863159179688,210.87557983398438)"/>
<path d="M0 0 C24.75 0 49.5 0 75 0 C75 1.32 75 2.64 75 4 C74.34 4 73.68 4 73 4 C73 3.34 73 2.68 73 2 C50.56 2.33 28.12 2.66 5 3 C4.67 4.65 4.34 6.3 4 8 C1.67210485 5.16604069 0.92622107 3.70488428 0 0 Z " fill="#E04C2F" transform="translate(103,186)"/>
<path d="M0 0 C0.99 0.495 0.99 0.495 2 1 C0.40207236 2.65189143 -1.20355876 4.2963339 -2.8125 5.9375 C-3.70582031 6.85402344 -4.59914063 7.77054687 -5.51953125 8.71484375 C-9.32222457 12.2181124 -12.23111871 12.12331804 -17.21557617 12.11352539 C-18.4966777 12.11344986 -19.77777924 12.11337433 -21.09770203 12.11329651 C-22.49612466 12.10818987 -23.8945469 12.10297387 -25.29296875 12.09765625 C-26.72357636 12.09579089 -28.15418461 12.09436754 -29.58479309 12.09336853 C-33.34786751 12.08955267 -37.11090325 12.07973032 -40.8739624 12.06866455 C-44.71479774 12.05843043 -48.55563933 12.05386662 -52.39648438 12.04882812 C-59.9310072 12.03810722 -67.46549818 12.02104196 -75 12 C-74.67 11.01 -74.34 10.02 -74 9 C-73.23515793 9.0199855 -72.47031586 9.03997101 -71.68229675 9.06056213 C-64.43085162 9.24181884 -57.1805229 9.37837415 -49.92739391 9.46630955 C-46.19938268 9.51304218 -42.47326141 9.57628586 -38.74633789 9.67895508 C-35.14107894 9.77763715 -31.53762251 9.830737 -27.9311161 9.85389519 C-26.56391355 9.87036966 -25.19679622 9.90254067 -23.83037376 9.95157051 C-14.16050989 10.28435328 -9.00621591 8.58219367 -1.88398743 1.93785095 C-1.26227158 1.29836014 -0.64055573 0.65886932 0 0 Z " fill="#FED7D4" transform="translate(212,108)"/>
<path d="M0 0 C0.99 0.66 1.98 1.32 3 2 C3 2.66 3 3.32 3 4 C17.19 4 31.38 4 46 4 C46 4.99 46 5.98 46 7 C30.49 7 14.98 7 -1 7 C-1.33 5.35 -1.66 3.7 -2 2 C-1.34 1.34 -0.68 0.68 0 0 Z " fill="#FAFCFC" transform="translate(146,277)"/>
<path d="M0 0 C-1.15173355 2.46800047 -2.04783565 4.04783565 -4 6 C-3.06705612 6.01213028 -3.06705612 6.01213028 -2.11526489 6.02450562 C4.34085016 6.11036507 10.79665154 6.20985976 17.25244141 6.31738281 C19.66384628 6.35573647 22.07530962 6.3905779 24.48681641 6.421875 C27.94715313 6.46738703 31.40708508 6.52540404 34.8671875 6.5859375 C36.49223709 6.60326431 36.49223709 6.60326431 38.15011597 6.62094116 C39.1510025 6.64081085 40.15188904 6.66068054 41.18310547 6.68115234 C42.50881058 6.70113785 42.50881058 6.70113785 43.86129761 6.7215271 C46 7 46 7 48 9 C28.53 9 9.06 9 -11 9 C-11 8.34 -11 7.68 -11 7 C-9.1015625 5.2734375 -9.1015625 5.2734375 -6.625 3.375 C-5.40683594 2.42753906 -5.40683594 2.42753906 -4.1640625 1.4609375 C-2 0 -2 0 0 0 Z " fill="#EFA44C" transform="translate(234,109)"/>
<path d="M0 0 C16.5 0 33 0 50 0 C52 10 52 10 51 14 C51 13.01 51 12.02 51 11 C50.34 11 49.68 11 49 11 C49 8.03 49 5.06 49 2 C33.49 2 17.98 2 2 2 C1.67 2.66 1.34 3.32 1 4 C0.67 2.68 0.34 1.36 0 0 Z " fill="#E16143" transform="translate(141,262)"/>
<path d="M0 0 C34.32 0 68.64 0 104 0 C103.67 1.32 103.34 2.64 103 4 C103 3.01 103 2.02 103 1 C70 1 37 1 3 1 C2.67 2.32 2.34 3.64 2 5 C1.34 4.34 0.68 3.68 0 3 C0 2.01 0 1.02 0 0 Z " fill="#DFE6EC" transform="translate(74,141)"/>
<path d="M0 0 C0.66 0.33 1.32 0.66 2 1 C2.61010742 2.9777832 2.61010742 2.9777832 3.10546875 5.55078125 C3.37327148 6.94006836 3.37327148 6.94006836 3.64648438 8.35742188 C3.91428711 9.82018555 3.91428711 9.82018555 4.1875 11.3125 C4.37763672 12.27607422 4.56777344 13.23964844 4.76367188 14.23242188 C6.127025 21.49189998 6.127025 21.49189998 5 26 C4.01 22.04 3.02 18.08 2 14 C1.21625 14.66 0.4325 15.32 -0.375 16 C-3 18 -3 18 -5 18 C-5 20.31 -5 22.62 -5 25 C-5.99 25 -6.98 25 -8 25 C-5.85406445 16.45115106 -3.0505873 8.25949525 0 0 Z " fill="#EC5025" transform="translate(389,129)"/>
<path d="M0 0 C0 15.84 0 31.68 0 48 C-0.66 48 -1.32 48 -2 48 C-2.33 33.48 -2.66 18.96 -3 4 C-3.99 3.67 -4.98 3.34 -6 3 C-2.25 0 -2.25 0 0 0 Z " fill="#DC512F" transform="translate(274,12)"/>
<path d="M0 0 C27.72 0 55.44 0 84 0 C83.67 0.66 83.34 1.32 83 2 C55.94 1.67 28.88 1.34 1 1 C0.67 2.65 0.34 4.3 0 6 C-0.66 6 -1.32 6 -2 6 C-1.34 4.02 -0.68 2.04 0 0 Z " fill="#B6B6C0" transform="translate(253,217)"/>
<path d="M0 0 C1.62610337 4.22786875 0.65453403 5.03639791 -1 10 C10.55 10.33 22.1 10.66 34 11 C33.67 11.66 33.34 12.32 33 13 C20.79 13 8.58 13 -4 13 C-3.12288257 7.7372954 -2.1476409 4.66878456 0 0 Z " fill="#E3472B" transform="translate(79,105)"/>
<path d="M0 0 C0.66 0 1.32 0 2 0 C2 14.52 2 29.04 2 44 C1.34 44 0.68 44 0 44 C0 30.47 0 16.94 0 3 C-0.66 2.67 -1.32 2.34 -2 2 C-1.34 1.34 -0.68 0.68 0 0 Z " fill="#FBA42D" transform="translate(374,0)"/>
<path d="M0 0 C0.66 0.99 1.32 1.98 2 3 C0 5 0 5 -3.71533203 5.22705078 C-5.31286052 5.22673351 -6.91041027 5.21539982 -8.5078125 5.1953125 C-9.76874222 5.19106766 -9.76874222 5.19106766 -11.05514526 5.18673706 C-13.74524046 5.1755243 -16.4350051 5.15041803 -19.125 5.125 C-20.94660978 5.1149716 -22.76822477 5.10584551 -24.58984375 5.09765625 C-29.06002358 5.07558142 -33.52995571 5.04104434 -38 5 C-38 4.01 -38 3.02 -38 2 C-25.79 2 -13.58 2 -1 2 C-0.67 1.34 -0.34 0.68 0 0 Z " fill="#FED6CA" transform="translate(113,115)"/>
<path d="M0 0 C2.97 0.495 2.97 0.495 6 1 C4.68 1.33 3.36 1.66 2 2 C2 11.24 2 20.48 2 30 C3.65 30.33 5.3 30.66 7 31 C7 31.33 7 31.66 7 32 C4.69 32 2.38 32 0 32 C0 21.44 0 10.88 0 0 Z " fill="#E56748" transform="translate(279,14)"/>
<path d="M0 0 C0.66 0.33 1.32 0.66 2 1 C1.20335937 2.2684375 1.20335937 2.2684375 0.390625 3.5625 C-3.36485014 9.57995674 -6.97553474 15.57301132 -10 22 C-10.33 22 -10.66 22 -11 22 C-11 20.35 -11 18.7 -11 17 C-10.34 17 -9.68 17 -9 17 C-9 15.68 -9 14.36 -9 13 C-8.34 13 -7.68 13 -7 13 C-7.33 12.34 -7.66 11.68 -8 11 C-8.598125 11.165 -9.19625 11.33 -9.8125 11.5 C-12 12 -12 12 -15 12 C-13.06401165 10.37316948 -11.12629031 8.74848531 -9.1875 7.125 C-8.64029297 6.66480469 -8.09308594 6.20460938 -7.52929688 5.73046875 C-5.08054339 3.68242038 -2.65921675 1.77281117 0 0 Z " fill="#F1A84D" transform="translate(381,58)"/>
<path d="M0 0 C2.48907251 -0.15890689 4.91757041 -0.13772389 7.41027832 -0.04962158 C8.7668454 -0.03688705 8.7668454 -0.03688705 10.15081787 -0.02389526 C13.03539889 0.00965507 15.91716953 0.08493516 18.80090332 0.16131592 C20.75789416 0.19141351 22.71492887 0.21878968 24.67199707 0.24334717 C29.46604634 0.3094516 34.25799864 0.41298306 39.05090332 0.53631592 C38.72090332 1.19631592 38.39090332 1.85631592 38.05090332 2.53631592 C24.85090332 2.53631592 11.65090332 2.53631592 -1.94909668 2.53631592 C-2.27909668 3.85631592 -2.60909668 5.17631592 -2.94909668 6.53631592 C-3.93909668 6.53631592 -4.92909668 6.53631592 -5.94909668 6.53631592 C-3.25572516 0.89584947 -3.25572516 0.89584947 0 0 Z " fill="#E4A355" transform="translate(51.9490966796875,223.46368408203125)"/>
<path d="M0 0 C7.92 0 15.84 0 24 0 C24 0.66 24 1.32 24 2 C17.4 2.33 10.8 2.66 4 3 C3.67 3.99 3.34 4.98 3 6 C0 2.25 0 2.25 0 0 Z " fill="#DF4B2D" transform="translate(98,284)"/>
<path d="M0 0 C0.99 0.33 1.98 0.66 3 1 C2.33501617 5.38889325 0.81242323 8.9811485 -1 13 C-1.66666667 11 -2.33333333 9 -3 7 C-3.99 7.495 -3.99 7.495 -5 8 C-5.6875 6.1875 -5.6875 6.1875 -6 4 C-4.6875 2.25 -4.6875 2.25 -3 1 C-2.34 1 -1.68 1 -1 1 C-0.67 0.67 -0.34 0.34 0 0 Z " fill="#0D142D" transform="translate(279,151)"/>
<path d="M0 0 C0.81842377 0.02361099 1.63684753 0.04722198 2.48007202 0.07154846 C5.0988681 0.14823569 7.71737221 0.23223808 10.3359375 0.31640625 C12.10936062 0.36962188 13.88279808 0.42236232 15.65625 0.47460938 C20.00799804 0.60385765 24.35949811 0.73966777 28.7109375 0.87890625 C28.7109375 1.20890625 28.7109375 1.53890625 28.7109375 1.87890625 C27.21312744 1.91649048 27.21312744 1.91649048 25.68505859 1.95483398 C21.96130731 2.04938933 18.23772176 2.14949025 14.51416016 2.2512207 C12.90612683 2.2943883 11.29805302 2.33607526 9.68994141 2.3762207 C7.37129545 2.43436631 5.05284989 2.49793016 2.734375 2.5625 C1.66526382 2.58756874 1.66526382 2.58756874 0.57455444 2.61314392 C-3.46250756 2.73151189 -7.32283189 3.11658696 -11.2890625 3.87890625 C-10.9590625 2.88890625 -10.6290625 1.89890625 -10.2890625 0.87890625 C-7.05442167 -0.73841416 -3.54197799 -0.11984572 0 0 Z " fill="#1D253D" transform="translate(399.2890625,90.12109375)"/>
<path d="M0 0 C0.99 0.66 1.98 1.32 3 2 C2.67 2.33 2.34 2.66 2 3 C15.365 3.495 15.365 3.495 29 4 C29 4.33 29 4.66 29 5 C13.16 5.495 13.16 5.495 -3 6 C-1 1 -1 1 0 0 Z " fill="#1C2332" transform="translate(10,211)"/>
<path d="M0 0 C0.33 0 0.66 0 1 0 C1.28766391 5.36972627 0.87017762 9.19243494 -1.24609375 14.140625 C-2.02862255 16.07059241 -2.53782753 17.97182566 -3 20 C-3.99 20 -4.98 20 -6 20 C-4.22089072 13.24947898 -2.29561809 6.59379663 0 0 Z " fill="#232839" transform="translate(360,148)"/>
<path d="M0 0 C2.74054368 3.32486381 4.42376049 6.83057886 6.1875 10.75 C6.71730469 11.92046875 7.24710938 13.0909375 7.79296875 14.296875 C8.19128906 15.18890625 8.58960937 16.0809375 9 17 C8.34 17.66 7.68 18.32 7 19 C5.63354299 16.40163864 4.28169331 13.79734444 2.9375 11.1875 C2.54755859 10.44951172 2.15761719 9.71152344 1.75585938 8.95117188 C1.39169922 8.23896484 1.02753906 7.52675781 0.65234375 6.79296875 C0.31195068 6.1383667 -0.02844238 5.48376465 -0.37915039 4.80932617 C-1 3 -1 3 0 0 Z " fill="#1E2235" transform="translate(94,183)"/>
<path d="M0 0 C0.66 0.33 1.32 0.66 2 1 C0.74054645 2.67528263 -0.53293682 4.34002614 -1.8125 6 C-2.87404297 7.3921875 -2.87404297 7.3921875 -3.95703125 8.8125 C-4.63121094 9.534375 -5.30539062 10.25625 -6 11 C-6.99 11 -7.98 11 -9 11 C-7.59928507 5.70841026 -4.14512755 3.22521956 0 0 Z " fill="#14162E" transform="translate(387,92)"/>
<path d="M0 0 C1.35814777 4.0744433 -0.05254238 6.81468116 -1.4375 10.6875 C-1.68048828 11.38939453 -1.92347656 12.09128906 -2.17382812 12.81445312 C-2.7744944 14.54578532 -3.38619719 16.27328137 -4 18 C-4.66 18 -5.32 18 -6 18 C-5.27275406 12.47293087 -3.66554027 7.30039859 -2 2 C-1.34 2 -0.68 2 0 2 C0 1.34 0 0.68 0 0 Z " fill="#0D132B" transform="translate(368,171)"/>
<path d="M0 0 C0.625 1.8125 0.625 1.8125 1 4 C-1 7 -1 7 -3 8 C-3.33 7.34 -3.66 6.68 -4 6 C-4.99 6.66 -5.98 7.32 -7 8 C-7.6875 6.1875 -7.6875 6.1875 -8 4 C-6.5625 2.25 -6.5625 2.25 -5 1 C-3.68 1.66 -2.36 2.32 -1 3 C-0.67 2.01 -0.34 1.02 0 0 Z " fill="#182035" transform="translate(283,146)"/>
<path d="M0 0 C1.67542976 0.28604898 3.34385343 0.61781233 5 1 C5 2.98 5 4.96 5 7 C4.67 7 4.34 7 4 7 C3.67 5.35 3.34 3.7 3 2 C2.54625 3.216875 2.0925 4.43375 1.625 5.6875 C0.45547059 8.8080927 -0.74562438 11.91230616 -2 15 C-3.11563018 11.62953982 -2.86843709 9.25980759 -2.125 5.8125 C-1.94195312 4.93207031 -1.75890625 4.05164063 -1.5703125 3.14453125 C-1 1 -1 1 0 0 Z " fill="#FCE5D9" transform="translate(387,128)"/>
<path d="M0 0 C2.15377564 2.62198774 3.40072174 4.64404172 4 8 C2.35 8.66 0.7 9.32 -1 10 C-2.1875 7.25 -2.1875 7.25 -3 4 C-1.625 1.625 -1.625 1.625 0 0 Z " fill="#F7EEE9" transform="translate(85,153)"/>
<path d="M0 0 C3 1 3 1 4.60546875 3.94140625 C5.12753906 5.13636719 5.64960937 6.33132812 6.1875 7.5625 C6.71730469 8.76003906 7.24710937 9.95757812 7.79296875 11.19140625 C8.19128906 12.11824219 8.58960937 13.04507813 9 14 C8.01 14.495 8.01 14.495 7 15 C5.82823482 12.87767021 4.66245215 10.75242209 3.5 8.625 C3.16613281 8.02171875 2.83226563 7.4184375 2.48828125 6.796875 C0 2.2265625 0 2.2265625 0 0 Z " fill="#1B2134" transform="translate(111,220)"/>
<path d="M0 0 C0.33 0 0.66 0 1 0 C0.45018084 6.04801071 -0.90429574 11.30601106 -3 17 C-3.66 17 -4.32 17 -5 17 C-3.83348574 11.07136283 -2.24480642 5.61201606 0 0 Z " fill="#10152B" transform="translate(377,103)"/>
<path d="M0 0 C1.32 1.32 2.64 2.64 4 4 C4.66 3.67 5.32 3.34 6 3 C5.25 9.75 5.25 9.75 3 12 C2 9 2 9 2 7 C1.484375 6.360625 0.96875 5.72125 0.4375 5.0625 C-0.036875 4.381875 -0.51125 3.70125 -1 3 C-0.67 2.01 -0.34 1.02 0 0 Z " fill="#1B233B" transform="translate(239,230)"/>
<path d="M0 0 C3 1 3 1 4.38671875 3.50390625 C4.81597656 4.51324219 5.24523437 5.52257812 5.6875 6.5625 C6.12449219 7.57441406 6.56148438 8.58632812 7.01171875 9.62890625 C7.33785156 10.41136719 7.66398437 11.19382813 8 12 C7.34 12.66 6.68 13.32 6 14 C4.99515796 12.04414675 3.99626195 10.08523763 3 8.125 C2.1646875 6.48917969 2.1646875 6.48917969 1.3125 4.8203125 C0 2 0 2 0 0 Z " fill="#222438" transform="translate(77,152)"/>
<path d="M0 0 C0.66 0.33 1.32 0.66 2 1 C2.4140625 3.06640625 2.4140625 3.06640625 2.625 5.5625 C2.69976562 6.38878906 2.77453125 7.21507812 2.8515625 8.06640625 C2.90054687 8.70449219 2.94953125 9.34257812 3 10 C2.34 10 1.68 10 1 10 C1 9.01 1 8.02 1 7 C0.34 7 -0.32 7 -1 7 C-1 8.32 -1 9.64 -1 11 C-1.66 11 -2.32 11 -3 11 C-2.01 7.37 -1.02 3.74 0 0 Z " fill="#E35B3C" transform="translate(389,129)"/>
<path d="M0 0 C0.66 0.33 1.32 0.66 2 1 C0.89718873 2.27200971 -0.20730769 3.54255853 -1.3125 4.8125 C-1.92738281 5.52019531 -2.54226562 6.22789063 -3.17578125 6.95703125 C-4.73334335 8.70136739 -6.32658875 10.36778041 -8 12 C-8.66 11.67 -9.32 11.34 -10 11 C-8.89718873 9.72799029 -7.79269231 8.45744147 -6.6875 7.1875 C-6.07261719 6.47980469 -5.45773438 5.77210937 -4.82421875 5.04296875 C-3.26665665 3.29863261 -1.67341125 1.63221959 0 0 Z " fill="#FCE2D5" transform="translate(142,77)"/>
<path d="M0 0 C1.78479022 2.32022728 3.39200513 4.63226635 4.9375 7.125 C6.90053311 9.86134919 7.90046002 10.89302143 11 12 C9.68 12.33 8.36 12.66 7 13 C5.84852339 11.73427767 4.70400686 10.46222094 3.5625 9.1875 C2.92441406 8.47980469 2.28632813 7.77210938 1.62890625 7.04296875 C0 5 0 5 -1 2 C-0.67 1.34 -0.34 0.68 0 0 Z " fill="#1F263C" transform="translate(143,343)"/>
<path d="M0 0 C0 3.37465686 -0.81493079 5.53965992 -2 8.6875 C-2.556875 10.17830078 -2.556875 10.17830078 -3.125 11.69921875 C-3.41375 12.45847656 -3.7025 13.21773438 -4 14 C-5.82727202 10.87440313 -6.03797167 10.21643849 -5.375 6.4375 C-3.98715647 2.96789117 -3.18253131 1.80343441 0 0 Z " fill="#20243D" transform="translate(268,313)"/>
<path d="M0 0 C0.99 0 1.98 0 3 0 C3.57256004 3.92612596 3.74950876 5.91988086 1.44140625 9.24609375 C-0.31655476 11.23043203 -2.10884918 13.14261973 -4 15 C-4.66 14.67 -5.32 14.34 -6 14 C-5.48308594 13.40832031 -4.96617188 12.81664062 -4.43359375 12.20703125 C-3.77488281 11.41683594 -3.11617188 10.62664062 -2.4375 9.8125 C-1.44556641 8.64654297 -1.44556641 8.64654297 -0.43359375 7.45703125 C1.28448406 5.06640431 1.28448406 5.06640431 0.71484375 2.19921875 C0.47894531 1.47347656 0.24304688 0.74773437 0 0 Z " fill="#FDE8DE" transform="translate(129,297)"/>
<path d="M0 0 C1.32 0.33 2.64 0.66 4 1 C3.67 1.99 3.34 2.98 3 4 C5.31 4 7.62 4 10 4 C10 4.33 10 4.66 10 5 C3.565 5.495 3.565 5.495 -3 6 C-2.01 4.02 -1.02 2.04 0 0 Z " fill="#1C1D32" transform="translate(21,250)"/>
<path d="M0 0 C2.43344163 -0.08023473 4.82078367 -0.02214345 7.25244141 0.10009766 C8.09742188 0.12265625 8.94240234 0.14521484 9.81298828 0.16845703 C11.89772938 0.22734802 13.98155945 0.31702968 16.06494141 0.41259766 C16.06494141 0.74259766 16.06494141 1.07259766 16.06494141 1.41259766 C10.45494141 1.41259766 4.84494141 1.41259766 -0.93505859 1.41259766 C-1.26505859 2.73259766 -1.59505859 4.05259766 -1.93505859 5.41259766 C-2.92505859 5.41259766 -3.91505859 5.41259766 -4.93505859 5.41259766 C-3.87542434 2.57349322 -3.12682281 0.66670837 0 0 Z " fill="#EFAA4D" transform="translate(50.93505859375,224.58740234375)"/>
<path d="M0 0 C-2.64 1.98 -5.28 3.96 -8 6 C-8.33 4.02 -8.66 2.04 -9 0 C-3.375 -1.125 -3.375 -1.125 0 0 Z " fill="#E85A36" transform="translate(265,11)"/>
<path d="M0 0 C0.66 0.33 1.32 0.66 2 1 C-1.3 4.3 -4.6 7.6 -8 11 C-8.66 10.67 -9.32 10.34 -10 10 C-6.92118304 6.12948725 -3.99926986 2.97088618 0 0 Z " fill="#FDEBE2" transform="translate(212,108)"/>
<path d="M0 0 C1.093125 0.226875 2.18625 0.45375 3.3125 0.6875 C2.735 0.955625 2.1575 1.22375 1.5625 1.5 C-0.7200868 2.70469859 -2.6612942 4.09548115 -4.6875 5.6875 C-5.3475 4.6975 -6.0075 3.7075 -6.6875 2.6875 C-4.58035839 -0.41123767 -3.86755884 -0.32775922 0 0 Z " fill="#1D2136" transform="translate(441.6875,80.3125)"/>
<path d="M0 0 C-3.45207476 1.96529009 -6.88476226 2.7746477 -10.75 3.625 C-11.92046875 3.88539062 -13.0909375 4.14578125 -14.296875 4.4140625 C-15.18890625 4.60742188 -16.0809375 4.80078125 -17 5 C-17.33 4.34 -17.66 3.68 -18 3 C-16.35 3 -14.7 3 -13 3 C-13 2.34 -13 1.68 -13 1 C-8.62426048 0.40667939 -4.42471556 -0.13827236 0 0 Z " fill="#E45C3B" transform="translate(204,45)"/>
<path d="M0 0 C0.66 0.66 1.32 1.32 2 2 C-1.21451269 3.60725635 -4.43612536 3.05748185 -8 3 C-8.33 2.34 -8.66 1.68 -9 1 C-5.98675805 -0.50662097 -3.31713623 -0.17770373 0 0 Z " fill="#2D3346" transform="translate(296,343)"/>
<path d="M0 0 C0.33 0.66 0.66 1.32 1 2 C-0.70847138 6.13629913 -2.67356033 9.01767477 -6 12 C-6.66 11.67 -7.32 11.34 -8 11 C-5.36 7.37 -2.72 3.74 0 0 Z " fill="#FCE2D6" transform="translate(366,288)"/>
<path d="M0 0 C0.33 0 0.66 0 1 0 C1.58173436 5.67191002 -0.20282563 10.15088384 -3 15 C-3.99 15.495 -3.99 15.495 -5 16 C-3.41078475 10.63904723 -1.81027062 5.29156027 0 0 Z " fill="#E3684A" transform="translate(351,243)"/>
<path d="M0 0 C0.6171875 1.875 0.6171875 1.875 1 4 C-0.28965176 5.37562854 -1.62689293 6.70766393 -3 8 C-3.7872678 10.1381966 -3.7872678 10.1381966 -4 12 C-4.99 12 -5.98 12 -7 12 C-5.44298069 7.32894208 -2.91552627 3.91294315 0 0 Z " fill="#E75C39" transform="translate(99,72)"/>
<path d="M0 0 C0.66 0.33 1.32 0.66 2 1 C0.35 3.64 -1.3 6.28 -3 9 C-3.33 8.01 -3.66 7.02 -4 6 C-5.32 6.33 -6.64 6.66 -8 7 C-5.42215154 4.35247996 -3.08351902 2.05567935 0 0 Z " fill="#EDAD60" transform="translate(381,58)"/>
<path d="M0 0 C0 3 0 3 -2.375 5.5625 C-3.24125 6.366875 -4.1075 7.17125 -5 8 C-5.66 8.66 -6.32 9.32 -7 10 C-8.32 9.67 -9.64 9.34 -11 9 C-7.37 6.03 -3.74 3.06 0 0 Z " fill="#E45A33" transform="translate(223,50)"/>
<path d="M0 0 C2 3 2 3 1.7578125 5.69921875 C1.44457031 7.17841797 1.44457031 7.17841797 1.125 8.6875 C0.81949219 10.17830078 0.81949219 10.17830078 0.5078125 11.69921875 C0.34023437 12.45847656 0.17265625 13.21773438 0 14 C-0.33 14 -0.66 14 -1 14 C-2.51708428 4.58997722 -2.51708428 4.58997722 0 0 Z " fill="#1C2536" transform="translate(141,320)"/>
<path d="M0 0 C0.66 0.66 1.32 1.32 2 2 C1.64700993 5.44165321 0.95418308 7.06872538 -1 10 C-1.99 9.67 -2.98 9.34 -4 9 C-2.68 6.03 -1.36 3.06 0 0 Z " fill="#20253C" transform="translate(254,196)"/>
<path d="M0 0 C2.09749995 2.35968744 2.96905704 3.54616994 3.1875 6.75 C3.125625 7.4925 3.06375 8.235 3 9 C1.35 8.67 -0.3 8.34 -2 8 C-1.34 5.36 -0.68 2.72 0 0 Z " fill="#E0E4E7" transform="translate(369,171)"/>
<path d="M0 0 C0.33 0 0.66 0 1 0 C1 1.98 1 3.96 1 6 C0.34 6 -0.32 6 -1 6 C-1 8.31 -1 10.62 -1 13 C-1.99 13 -2.98 13 -4 13 C-3.52343588 11.20763933 -3.04366502 9.41613103 -2.5625 7.625 C-2.29566406 6.62726563 -2.02882813 5.62953125 -1.75390625 4.6015625 C-1 2 -1 2 0 0 Z " fill="#E86140" transform="translate(385,141)"/>
<path d="M0 0 C1.06528748 2.73019786 1.07998186 3.79298812 0.00390625 6.578125 C-0.47175781 7.45984375 -0.94742187 8.3415625 -1.4375 9.25 C-1.91058594 10.14203125 -2.38367188 11.0340625 -2.87109375 11.953125 C-3.24363281 12.62859375 -3.61617188 13.3040625 -4 14 C-4.66 14 -5.32 14 -6 14 C-4.16508812 9.25981099 -2.08058541 4.63586749 0 0 Z " fill="#FEE1D8" transform="translate(378,266)"/>
<path d="M0 0 C1 4 1 4 0 7 C-0.99 7 -1.98 7 -3 7 C-3.33 8.32 -3.66 9.64 -4 11 C-4.66 10.67 -5.32 10.34 -6 10 C-4.02 6.7 -2.04 3.4 0 0 Z " fill="#E65330" transform="translate(91,84)"/>
<path d="M0 0 C1.9375 0.6875 1.9375 0.6875 4 2 C5.2652614 5.60112861 4.9392247 8.34745949 4 12 C3.67 12 3.34 12 3 12 C2 8 1 4 0 0 Z " fill="#10162C" transform="translate(303,321)"/>
<path d="M0 0 C0.66 0.66 1.32 1.32 2 2 C1.9765625 4.3828125 1.9765625 4.3828125 1.625 7.125 C1.51414063 8.03507813 1.40328125 8.94515625 1.2890625 9.8828125 C1.19367188 10.58148438 1.09828125 11.28015625 1 12 C-1.12157386 8.20129266 -1.24663053 5.35713932 -1 1 C-0.67 0.67 -0.34 0.34 0 0 Z " fill="#252940" transform="translate(199,234)"/>
<path d="M0 0 C1.77706209 2.66559313 2.87548273 5.0280615 4 8 C2 8 0 8 -2 8 C-2.33 7.01 -2.66 6.02 -3 5 C-2.34 5 -1.68 5 -1 5 C-0.67 3.35 -0.34 1.7 0 0 Z " fill="#E7E6E3" transform="translate(98,227)"/>
<path d="M0 0 C2.13586678 3.20380017 2.23132175 4.01939967 2.125 7.6875 C2.10695312 8.49574219 2.08890625 9.30398437 2.0703125 10.13671875 C2.04710937 10.75160156 2.02390625 11.36648437 2 12 C1.34 12 0.68 12 0 12 C-0.76173392 7.6835078 -1.16063604 4.25566547 0 0 Z " fill="#191D35" transform="translate(192,222)"/>
<path d="M0 0 C0.66 0.99 1.32 1.98 2 3 C1.5390625 5.26171875 1.5390625 5.26171875 0.625 7.6875 C0.18027344 8.89986328 0.18027344 8.89986328 -0.2734375 10.13671875 C-0.51320313 10.75160156 -0.75296875 11.36648437 -1 12 C-1.66 11.67 -2.32 11.34 -3 11 C-2.69078116 9.54096742 -2.37751201 8.08279278 -2.0625 6.625 C-1.88847656 5.81289062 -1.71445312 5.00078125 -1.53515625 4.1640625 C-1 2 -1 2 0 0 Z " fill="#181F33" transform="translate(352,217)"/>
<path d="M0 0 C0 3.61186134 -0.52269616 4.44011936 -3 7 C-6.1875 8.25 -6.1875 8.25 -9 9 C-6.31941902 5.42589203 -3.57410797 2.68058098 0 0 Z " fill="#E55937" transform="translate(163,97)"/>
<path d="M0 0 C0.66 0.99 1.32 1.98 2 3 C1.5390625 5.26171875 1.5390625 5.26171875 0.625 7.6875 C0.18027344 8.89986328 0.18027344 8.89986328 -0.2734375 10.13671875 C-0.51320313 10.75160156 -0.75296875 11.36648437 -1 12 C-1.66 11.67 -2.32 11.34 -3 11 C-1.125 3.375 -1.125 3.375 0 0 Z " fill="#191E30" transform="translate(374,150)"/>
<path d="M0 0 C0 2 0 2 -1.42578125 3.54296875 C-2.04839844 4.08566406 -2.67101562 4.62835938 -3.3125 5.1875 C-3.92738281 5.73792969 -4.54226562 6.28835937 -5.17578125 6.85546875 C-5.77777344 7.23316406 -6.37976563 7.61085938 -7 8 C-7.99 7.67 -8.98 7.34 -10 7 C-8.71372289 5.82739389 -7.42080217 4.6620717 -6.125 3.5 C-5.04605469 2.52546875 -5.04605469 2.52546875 -3.9453125 1.53125 C-2 0 -2 0 0 0 Z " fill="#FEE8E0" transform="translate(247,82)"/>
<path d="M0 0 C1.98 0 3.96 0 6 0 C1.375 4.875 1.375 4.875 -2 6 C-2.33 5.01 -2.66 4.02 -3 3 C-2.34 3 -1.68 3 -1 3 C-0.67 2.01 -0.34 1.02 0 0 Z " fill="#FBEAE2" transform="translate(211,55)"/>
<path d="M0 0 C0 0.66 0 1.32 0 2 C-3.12180401 2.96661363 -5.52083795 2.98988909 -8.75 2.5625 C-9.94882812 2.40974609 -9.94882812 2.40974609 -11.171875 2.25390625 C-11.77515625 2.17011719 -12.3784375 2.08632813 -13 2 C-13 1.67 -13 1.34 -13 1 C-8.61414671 0.29826347 -4.44209357 -0.10834375 0 0 Z " fill="#1D2537" transform="translate(303,359)"/>
<path d="M0 0 C3 1 3 1 4.6875 3.9375 C6 7 6 7 6 9 C3 8 3 8 1.3125 5.0625 C0 2 0 2 0 0 Z " fill="#11172C" transform="translate(138,274)"/>
<path d="M0 0 C0.66 0.33 1.32 0.66 2 1 C2 1.66 2 2.32 2 3 C0.68 3.33 -0.64 3.66 -2 4 C-2 4.99 -2 5.98 -2 7 C-3.32 6.34 -4.64 5.68 -6 5 C-4.02 3.35 -2.04 1.7 0 0 Z " fill="#EB5432" transform="translate(177,86)"/>
<path d="M0 0 C0.66 0 1.32 0 2 0 C1.34 1.98 0.68 3.96 0 6 C-1.98 6 -3.96 6 -6 6 C-4 4 -2 2 0 0 Z " fill="#EC5831" transform="translate(187,78)"/>
<path d="M0 0 C0 3 0 3 -2.5 5.6875 C-3.325 6.450625 -4.15 7.21375 -5 8 C-5.66 7.34 -6.32 6.68 -7 6 C-4.69 4.02 -2.38 2.04 0 0 Z " fill="#E5542D" transform="translate(232,43)"/>
<path d="M0 0 C0.66 0.33 1.32 0.66 2 1 C1.50351065 5.46840411 1.31012244 6.68987756 -2 10 C-1.34 6.7 -0.68 3.4 0 0 Z " fill="#1C233D" transform="translate(219,275)"/>
<path d="M0 0 C1.1875 1.625 1.1875 1.625 2 4 C0.625 7.25 0.625 7.25 -1 10 C-1.66 9.01 -2.32 8.02 -3 7 C-1.625 3.3125 -1.625 3.3125 0 0 Z " fill="#1F2537" transform="translate(262,178)"/>
<path d="M0 0 C0.66 0 1.32 0 2 0 C1.46930939 3.82097239 0.50298434 6.06171403 -2 9 C-3 6 -3 6 -1.5625 2.8125 C-1.046875 1.884375 -0.53125 0.95625 0 0 Z " fill="#1D2435" transform="translate(272,157)"/>
<path d="M0 0 C0.95465783 2.16967689 1.14401212 3.56328793 0.3984375 5.82421875 C-0.35870385 7.5684743 -1.17609198 9.28627131 -2 11 C-2.66 11 -3.32 11 -4 11 C-3.52269162 9.5410574 -3.04308958 8.08286504 -2.5625 6.625 C-2.29566406 5.81289062 -2.02882813 5.00078125 -1.75390625 4.1640625 C-1 2 -1 2 0 0 Z " fill="#E96043" transform="translate(79,105)"/>
<path d="M0 0 C3.3 0.99 6.6 1.98 10 3 C8.02 3.99 8.02 3.99 6 5 C3.98079663 3.69593116 1.98075027 2.36176581 0 1 C0 0.67 0 0.34 0 0 Z " fill="#202738" transform="translate(274,355)"/>
<path d="M0 0 C0.99 0 1.98 0 3 0 C3 0.66 3 1.32 3 2 C3.66 2.33 4.32 2.66 5 3 C4.01 4.32 3.02 5.64 2 7 C0.5393715 4.35261084 0 3.10551666 0 0 Z " fill="#E0E9E4" transform="translate(132,256)"/>
<path d="M0 0 C0.66 0 1.32 0 2 0 C1.40072174 3.35595828 0.15377564 5.37801226 -2 8 C-3 5 -3 5 -1.6875 2.3125 C-1.130625 1.549375 -0.57375 0.78625 0 0 Z " fill="#1D233A" transform="translate(237,236)"/>
<path d="M0 0 C0.33 0.99 0.66 1.98 1 3 C-0.25 4.5625 -0.25 4.5625 -2 6 C-4.1875 5.6875 -4.1875 5.6875 -6 5 C-4.02 3.35 -2.04 1.7 0 0 Z " fill="#EEAA50" transform="translate(295,60)"/>
<path d="M0 0 C0.66 0.99 1.32 1.98 2 3 C0.625 5.5 0.625 5.5 -1 8 C-1.66 8 -2.32 8 -3 8 C-1.125 2.25 -1.125 2.25 0 0 Z " fill="#1B2336" transform="translate(320,342)"/>
<path d="M0 0 C2.2477975 2.05233685 3.0022242 3.00667261 4 6 C3.01 7.485 3.01 7.485 2 9 C1.01 6.36 0.02 3.72 -1 1 C-0.67 0.67 -0.34 0.34 0 0 Z " fill="#262D3F" transform="translate(318,313)"/>
<path d="M0 0 C4.75 0.75 4.75 0.75 7 3 C5.02 3.99 5.02 3.99 3 5 C2.01 3.35 1.02 1.7 0 0 Z " fill="#E95530" transform="translate(342,308)"/>
<path d="M0 0 C1.125 1.625 1.125 1.625 2 4 C1.125 7.25 1.125 7.25 0 10 C-1.125 8.375 -1.125 8.375 -2 6 C-1.125 2.75 -1.125 2.75 0 0 Z " fill="#262D41" transform="translate(349,180)"/>
<path d="M0 0 C0.99 0.33 1.98 0.66 3 1 C2.19152271 2.16945792 1.37810888 3.33550461 0.5625 4.5 C0.11003906 5.1496875 -0.34242187 5.799375 -0.80859375 6.46875 C-1.20175781 6.9740625 -1.59492187 7.479375 -2 8 C-2.33 8 -2.66 8 -3 8 C-3 6.35 -3 4.7 -3 3 C-2.01 3 -1.02 3 0 3 C0 2.01 0 1.02 0 0 Z " fill="#E65937" transform="translate(124,94)"/>
<path d="M0 0 C0.66 0.33 1.32 0.66 2 1 C0.68 2.65 -0.64 4.3 -2 6 C-3.32 5.67 -4.64 5.34 -6 5 C-4.02 3.35 -2.04 1.7 0 0 Z " fill="#FDECD4" transform="translate(318,89)"/>
<path d="M0 0 C0.66 0 1.32 0 2 0 C1.67 0.99 1.34 1.98 1 3 C0.34 3 -0.32 3 -1 3 C-1 3.66 -1 4.32 -1 5 C-2.65 5.33 -4.3 5.66 -6 6 C-4 4 -2 2 0 0 Z " fill="#E25935" transform="translate(241,36)"/>
</svg>
