<?xml version="1.0" encoding="UTF-8"?>
<svg version="1.1" xmlns="http://www.w3.org/2000/svg" width="658" height="191">
<path d="M0 0 C217.14 0 434.28 0 658 0 C658 63.03 658 126.06 658 191 C440.86 191 223.72 191 0 191 C0 127.97 0 64.94 0 0 Z " fill="#FDFDFD" transform="translate(0,0)"/>
<path d="M0 0 C1.15662895 -0.00744736 1.15662895 -0.00744736 2.33662415 -0.01504517 C4.88873181 -0.02965526 7.4407773 -0.03646712 9.99291992 -0.04199219 C11.76787823 -0.04774491 13.54283652 -0.05350263 15.3177948 -0.05926514 C19.04096771 -0.06977207 22.76411904 -0.07561664 26.48730469 -0.07910156 C31.25213595 -0.0845834 36.01668104 -0.10860603 40.78142262 -0.13707352 C44.44891689 -0.15572167 48.11634256 -0.16090667 51.78388023 -0.16243744 C53.54011282 -0.16545995 55.29634431 -0.17347493 57.05253029 -0.18662262 C59.51310447 -0.20372764 61.9729838 -0.20179212 64.43359375 -0.1953125 C65.15536804 -0.20452728 65.87714233 -0.21374207 66.62078857 -0.22323608 C72.04731797 -0.1785992 76.10223661 1.0884763 80.16870117 4.73925781 C88.41088867 14.81827567 88.41088867 14.81827567 88.41088867 19.16113281 C87.37794678 19.17571533 86.34500488 19.19029785 85.28076172 19.20532227 C81.39827189 19.26389413 77.51632693 19.34111538 73.63427734 19.42358398 C71.96346978 19.45655939 70.29255813 19.48467376 68.62158203 19.50756836 C51.53137571 19.67445614 51.53137571 19.67445614 35.97338867 26.22363281 C31.48742211 29.12805597 31.48742211 29.12805597 29.25073242 30.09472656 C26.89065822 31.46266766 26.59146095 32.71594661 25.41088867 35.16113281 C24.36770841 36.83184311 23.30592779 38.49100753 22.23120117 40.14160156 C18.38285678 46.14283112 14.81858863 52.28282652 11.28588867 58.47363281 C4.42817741 70.42991459 -2.54567307 82.31346845 -9.58911133 94.16113281 C-13.31344515 92.94855901 -16.96713939 91.65253302 -20.58911133 90.16113281 C-17.94552574 99.16813194 -15.30064586 108.17429782 -12.58911133 117.16113281 C-12.0296582 116.14019531 -11.47020508 115.11925781 -10.89379883 114.06738281 C-5.44840287 104.17551223 0.15575965 94.38624968 5.86645508 84.64526367 C9.07814032 79.16525519 12.2720933 73.67598268 15.43041992 68.16503906 C15.7641008 67.58350067 16.09778168 67.00196228 16.4415741 66.40280151 C18.05170367 63.59640156 19.65896032 60.78843548 21.26123047 57.97753906 C34.93483039 34.14044206 34.93483039 34.14044206 49.41088867 29.16113281 C52.56951329 28.6805937 55.63204003 28.688887 58.82104492 28.77050781 C59.67395615 28.7761676 60.52686737 28.78182739 61.40562439 28.78765869 C64.09548172 28.80981992 66.78394284 28.85997422 69.47338867 28.91113281 C71.31125988 28.93122415 73.14915224 28.94947027 74.98706055 28.96582031 C79.46219733 29.00961767 83.93630738 29.07849973 88.41088867 29.16113281 C87.84499023 30.26972656 87.2790918 31.37832031 86.69604492 32.52050781 C85.95494692 33.98394184 85.21407323 35.44748948 84.47338867 36.91113281 C84.10020508 37.64074219 83.72702148 38.37035156 83.3425293 39.12207031 C82.98481445 39.83105469 82.62709961 40.54003906 82.25854492 41.27050781 C81.76366577 42.24455566 81.76366577 42.24455566 81.25878906 43.23828125 C80.38025409 45.23060531 79.76063123 47.01037138 79.41088867 49.16113281 C80.54847 51.94586283 80.54847 51.94586283 82.35620117 54.86816406 C83.34523437 56.56779297 83.34523437 56.56779297 84.35424805 58.30175781 C84.710271 58.90052734 85.06629395 59.49929687 85.43310547 60.11621094 C86.54383494 61.98701674 87.63670731 63.86723929 88.7253418 65.75097656 C92.21297895 71.77321698 95.76287224 77.75363486 99.37182617 83.70410156 C99.9710791 84.71303467 100.57033203 85.72196777 101.18774414 86.76147461 C102.30236407 88.63712507 103.43817438 90.50041243 104.59887695 92.34790039 C108.47629882 98.91972849 109.81754975 104.57449631 108.41088867 112.16113281 C106.82224116 116.42610103 104.72024954 120.24738071 102.41088867 124.16113281 C101.89413574 125.07668945 101.37738281 125.99224609 100.8449707 126.93554688 C99.25078102 129.73751668 97.61783233 132.51338648 95.97338867 135.28613281 C94.74461504 137.37023253 93.51678556 139.45488913 92.28979492 141.54003906 C91.65702637 142.61527832 91.02425781 143.69051758 90.37231445 144.79833984 C88.34815467 148.26868796 86.35695683 151.75603823 84.37573242 155.25097656 C83.7065011 156.42731488 83.03714992 157.60358502 82.36767578 158.77978516 C81.09313832 161.02290748 79.8241313 163.26918411 78.56152344 165.51904297 C70.01647443 180.50841946 70.01647443 180.50841946 61.41088867 184.16113281 C58.71803295 184.44479639 56.26035843 184.58227947 53.57299805 184.56518555 C52.81122757 184.5720488 52.04945709 184.57891205 51.26460266 184.58598328 C48.76108863 184.6041981 46.25820437 184.60042201 43.75463867 184.59472656 C42.00638629 184.59929049 40.25813569 184.60459669 38.5098877 184.61061096 C34.85165096 184.61953127 31.19363266 184.61713078 27.53540039 184.60717773 C22.85457164 184.59568143 18.17449655 184.61591488 13.49376678 184.64509487 C9.88542925 184.66346584 6.27727211 184.66316278 2.66889954 184.65745735 C0.94337404 184.65730429 -0.7821638 184.6633362 -2.50764465 184.67574883 C-4.92264746 184.69067684 -7.33626051 184.67997031 -9.7512207 184.6628418 C-10.81278633 184.67734375 -10.81278633 184.67734375 -11.89579773 184.69213867 C-17.7407996 184.60561005 -21.12907872 182.4079626 -25.34692383 178.55566406 C-28.10812944 175.36055471 -30.10502754 172.31807575 -31.76879883 168.42285156 C-32.28676025 167.2214856 -32.28676025 167.2214856 -32.81518555 165.99584961 C-33.07058105 165.39039307 -33.32597656 164.78493652 -33.58911133 164.16113281 C-32.47576416 164.15702393 -31.36241699 164.15291504 -30.21533203 164.14868164 C-26.02331326 164.12665462 -21.83220211 164.07212777 -17.640625 164.00854492 C-15.83798016 163.98556799 -14.03520494 163.97101766 -12.23242188 163.96557617 C2.14061109 163.91368797 15.49984348 162.73191672 26.41088867 152.16113281 C31.90663012 146.58394281 35.45113799 140.13092775 39.16088867 133.28613281 C40.39649675 131.04318945 41.63348128 128.80100382 42.87182617 126.55957031 C43.47349609 125.46741211 44.07516602 124.37525391 44.69506836 123.25 C50.93040276 112.02497854 57.62518947 101.05995136 64.41088867 90.16113281 C67.96168726 90.8235507 71.08546333 91.73595052 74.41088867 93.16113281 C73.80590909 87.0974294 72.54758587 81.50599039 70.84838867 75.66113281 C70.61442383 74.83871094 70.38045898 74.01628906 70.1394043 73.16894531 C69.56846795 71.16484223 68.99042162 69.16276691 68.41088867 67.16113281 C66.12337908 70.09088504 64.21110075 73.10113646 62.36401367 76.32519531 C61.77386475 77.35201416 61.18371582 78.37883301 60.57568359 79.43676758 C59.94380127 80.54205811 59.31191895 81.64734863 58.66088867 82.78613281 C57.99491369 83.94637119 57.328649 85.10644333 56.66210938 86.26635742 C55.27397642 88.68259904 53.88709873 91.09955419 52.5012207 93.51708984 C47.97024737 101.41886104 43.41797079 109.30835655 38.85620117 117.19238281 C36.72855124 120.8698602 34.61770933 124.55568725 32.52807617 128.25488281 C20.72820387 149.0085818 20.72820387 149.0085818 9.41088867 153.16113281 C8.5575293 153.50265381 7.70416992 153.8441748 6.82495117 154.19604492 C2.67719715 155.36853288 -0.98637882 155.41323839 -5.26879883 155.35644531 C-6.48794479 155.35220047 -6.48794479 155.35220047 -7.73171997 155.34786987 C-10.30933808 155.336739 -12.88659951 155.31164796 -15.46411133 155.28613281 C-17.21931462 155.27609383 -18.97452339 155.26696959 -20.72973633 155.25878906 C-25.01633058 155.23682296 -29.30266063 155.20234259 -33.58911133 155.16113281 C-31.79517812 149.49584746 -29.15435943 145.0493047 -25.95239258 140.06347656 C-24.33467827 136.61946014 -24.54553658 135.73757075 -25.58911133 132.16113281 C-26.57869483 130.16703786 -27.64651953 128.21095278 -28.76489258 126.28613281 C-29.42295898 125.14587646 -30.08102539 124.00562012 -30.7590332 122.83081055 C-31.10893311 122.23195038 -31.45883301 121.63309021 -31.81933594 121.01608276 C-32.91189616 119.14350528 -33.99302653 117.26473517 -35.0715332 115.3840332 C-38.41966124 109.55708076 -41.81204725 103.76516286 -45.31958008 98.03222656 C-45.87540771 97.10732422 -46.43123535 96.18242188 -47.00390625 95.22949219 C-48.02663627 93.53213524 -49.06853287 91.84611154 -50.13330078 90.17480469 C-53.69884062 84.21203752 -54.90878428 79.06110358 -53.58911133 72.16113281 C-51.97809576 67.91745657 -49.87248346 64.07713852 -47.58911133 60.16113281 C-46.81398193 58.78586426 -46.81398193 58.78586426 -46.02319336 57.3828125 C-44.42787614 54.58286799 -42.79558607 51.80776334 -41.15161133 49.03613281 C-37.2551336 42.43397205 -33.3816086 35.82386068 -29.62426758 29.14160156 C-28.96428493 27.97430241 -28.30404926 26.80714628 -27.64355469 25.64013672 C-26.39232879 23.42456601 -25.14913995 21.20442965 -23.91552734 18.97900391 C-17.75945164 8.12863163 -13.13658963 0.02017574 0 0 Z " fill="#87EBFE" transform="translate(65.589111328125,6.8388671875)"/>
<path d="M0 0 C37.95 0 75.9 0 115 0 C115.495 2.97 115.495 2.97 116 6 C115.34124878 6.00586624 114.68249756 6.01173248 114.00378418 6.01777649 C107.12496612 6.08189039 100.24660812 6.16635655 93.36816406 6.26245117 C90.80377278 6.29563094 88.23930969 6.32368432 85.67480469 6.34643555 C81.98080958 6.3801085 78.2874684 6.43243307 74.59375 6.48828125 C73.4538562 6.49467117 72.3139624 6.5010611 71.13952637 6.50764465 C64.11928441 6.63624963 57.88059607 6.99646292 52.1171875 11.45727539 C48.16532912 16.47709865 45.05550618 21.83446434 42 27.4375 C40.86352896 29.48523588 39.72545321 31.53208184 38.5859375 33.578125 C37.70760254 35.15883789 37.70760254 35.15883789 36.81152344 36.77148438 C33.81364257 42.11433837 30.72139394 47.40131018 27.625 52.6875 C27.06683594 53.64132568 26.50867188 54.59515137 25.93359375 55.57788086 C25.39089844 56.50479736 24.84820313 57.43171387 24.2890625 58.38671875 C23.75700195 59.29599121 23.22494141 60.20526367 22.67675781 61.14208984 C21.47723706 63.1865846 20.27291415 65.22826491 19.06542969 67.26806641 C18.11651855 68.8775415 18.11651855 68.8775415 17.1484375 70.51953125 C16.57013184 71.49639893 15.99182617 72.4732666 15.39599609 73.47973633 C12.42061796 78.85133976 12.20231922 83.99201772 13 90 C14.57418387 94.15538768 16.76015071 97.83388149 19.0625 101.625 C19.68068604 102.68952393 20.29887207 103.75404785 20.93579102 104.85083008 C23.95946136 110.02651959 27.07693476 115.1414464 30.23164368 120.237854 C31.29091745 121.95039406 32.3448789 123.66611408 33.39819336 125.38232422 C34.73557139 127.54985969 36.09005437 129.70695398 37.46313477 131.85205078 C38.07213623 132.83286621 38.6811377 133.81368164 39.30859375 134.82421875 C39.85314209 135.68104248 40.39769043 136.53786621 40.95874023 137.4206543 C42.34738321 140.86051667 42.0597889 142.4428545 41 146 C39.63125548 148.88554879 38.06051769 151.62606039 36.4375 154.375 C36.01275391 155.11105469 35.58800781 155.84710938 35.15039062 156.60546875 C34.10843859 158.40839699 33.05533146 160.20487053 32 162 C37.08688088 161.95550609 42.17256043 161.88532281 47.25878906 161.79248047 C48.98492818 161.76445245 50.7111913 161.74314859 52.4375 161.72900391 C66.20189947 161.6875541 66.20189947 161.6875541 79 157 C80.051875 156.443125 81.10375 155.88625 82.1875 155.3125 C90.03199733 148.86257997 94.37959359 139.95333477 99.1484375 131.18359375 C102.77448761 124.53839056 106.61992243 118.02364231 110.45068359 111.49511719 C113.70482541 105.94408993 116.93504923 100.38104748 120.125 94.79296875 C120.81025968 93.59502746 121.49556202 92.39711056 122.1809082 91.19921875 C123.49693738 88.89858008 124.80691851 86.59482408 126.11401367 84.2890625 C126.70931885 83.24878906 127.30462402 82.20851563 127.91796875 81.13671875 C128.44156982 80.21592529 128.9651709 79.29513184 129.50463867 78.34643555 C130.84540071 76.24258838 132.15594165 74.66292395 134 73 C136.09635664 78.13607377 137.73009205 83.33693566 139.1875 88.6875 C139.53167969 89.94949219 139.87585938 91.21148437 140.23046875 92.51171875 C140.89034195 95.50292059 141.16851026 97.96100468 141 101 C140.45730469 100.7834375 139.91460937 100.566875 139.35546875 100.34375 C138.64003906 100.0653125 137.92460937 99.786875 137.1875 99.5 C136.47980469 99.2215625 135.77210938 98.943125 135.04296875 98.65625 C132.88158784 97.8470838 132.88158784 97.8470838 130 98 C129.58862793 98.72251953 129.17725586 99.44503906 128.75341797 100.18945312 C124.20968065 108.1658725 119.65519388 116.1360659 115.08935547 124.09985352 C114.38111168 125.33523258 113.67309154 126.5707399 112.96533203 127.80639648 C110.77710939 131.62590759 108.57860057 135.43934372 106.375 139.25 C105.82054199 140.21744141 105.26608398 141.18488281 104.69482422 142.18164062 C96.92236649 155.57055416 88.58921975 166.11524198 73.08917236 170.54624939 C69.53863248 171.31739669 65.91674956 171.24176989 62.296875 171.31640625 C61.45908508 171.33718735 60.62129517 171.35796844 59.75811768 171.37937927 C57.08882644 171.4446255 54.41943902 171.50364358 51.75 171.5625 C49.93749016 171.60570894 48.12498995 171.64932399 46.3125 171.69335938 C41.87509791 171.80028129 37.43759932 171.90161866 33 172 C33.91293869 173.76376886 34.83699458 175.52178596 35.765625 177.27734375 C36.27899414 178.25695068 36.79236328 179.23655762 37.32128906 180.24584961 C39.63338126 184.03914688 42.4761273 186.39342406 46 189 C46.99 189.99 46.99 189.99 48 191 C32.16 191 16.32 191 0 191 C0 127.97 0 64.94 0 0 Z " fill="#FDFEFE" transform="translate(0,0)"/>
<path d="M0 0 C0.66 0 1.32 0 2 0 C3.01443409 1.77207178 4.02872465 3.54422572 5.04296875 5.31640625 C5.36328568 5.87573349 5.6836026 6.43506073 6.0136261 7.01133728 C7.80228152 10.13600627 9.58649567 13.26309572 11.36328125 16.39453125 C14.82709353 22.49269498 18.31739265 28.56275347 21.95703125 34.55859375 C22.85675659 36.06860962 22.85675659 36.06860962 23.7746582 37.60913086 C24.89162426 39.48064566 26.02835905 41.34056079 27.18823242 43.18579102 C31.06432391 49.75888538 32.40680738 55.41257442 31 63 C29.41135249 67.26496822 27.30936087 71.08624789 25 75 C24.48324707 75.91555664 23.96649414 76.83111328 23.43408203 77.77441406 C21.83989235 80.57638387 20.20694366 83.35225366 18.5625 86.125 C17.33372637 88.20909971 16.10589689 90.29375632 14.87890625 92.37890625 C13.92975342 93.99176514 13.92975342 93.99176514 12.96142578 95.63720703 C10.937266 99.10755515 8.94606816 102.59490542 6.96484375 106.08984375 C6.29561243 107.26618207 5.62626125 108.4424522 4.95678711 109.61865234 C3.68224965 111.86177467 2.41324262 114.10805129 1.15063477 116.35791016 C-7.39441424 131.34728665 -7.39441424 131.34728665 -16 135 C-18.69285572 135.28366358 -21.15053025 135.42114666 -23.83789062 135.40405273 C-24.5996611 135.41091599 -25.36143158 135.41777924 -26.14628601 135.42485046 C-28.64980004 135.44306529 -31.1526843 135.4392892 -33.65625 135.43359375 C-35.40450239 135.43815768 -37.15275298 135.44346388 -38.90100098 135.44947815 C-42.55923771 135.45839846 -46.21725601 135.45599796 -49.87548828 135.44604492 C-54.55631703 135.43454861 -59.23639212 135.45478207 -63.91712189 135.48396206 C-67.52545942 135.50233303 -71.13361656 135.50202997 -74.74198914 135.49632454 C-76.46751463 135.49617148 -78.19305247 135.50220339 -79.91853333 135.51461601 C-82.33353613 135.52954403 -84.74714918 135.51883749 -87.16210938 135.50170898 C-88.223675 135.51621094 -88.223675 135.51621094 -89.3066864 135.53100586 C-95.15168827 135.44447724 -98.53996739 133.24682978 -102.7578125 129.39453125 C-105.51901811 126.1994219 -107.51591621 123.15694294 -109.1796875 119.26171875 C-109.52499512 118.46080811 -109.87030273 117.65989746 -110.22607422 116.8347168 C-110.60916748 115.92653198 -110.60916748 115.92653198 -111 115 C-109.32997925 114.99383667 -109.32997925 114.99383667 -107.6262207 114.98754883 C-103.43420193 114.96552181 -99.24309078 114.91099496 -95.05151367 114.84741211 C-93.24886883 114.82443518 -91.44609361 114.80988485 -89.64331055 114.80444336 C-75.27027758 114.75255515 -61.91104519 113.57078391 -51 103 C-45.50425855 97.42280999 -41.95975069 90.96979494 -38.25 84.125 C-37.01439192 81.88205664 -35.7774074 79.63987101 -34.5390625 77.3984375 C-33.93739258 76.3062793 -33.33572266 75.21412109 -32.71582031 74.08886719 C-26.48048591 62.86384572 -19.7856992 51.89881854 -13 41 C-9.44920141 41.66241789 -6.32542534 42.57481771 -3 44 C-3.66971733 37.17044068 -5.32950487 30.98495906 -7.359375 24.44726562 C-9.13578927 18.42889658 -9.25612875 15.35489631 -6.22265625 9.66796875 C-5.51048569 8.50295776 -4.79023168 7.34285455 -4.0625 6.1875 C-3.70220703 5.59001953 -3.34191406 4.99253906 -2.97070312 4.37695312 C-2.04093616 2.87870985 -1.02648071 1.43371436 0 0 Z " fill="#0C37EF" transform="translate(143,56)"/>
<path d="M0 0 C0.85291122 0.00565979 1.70582245 0.01131958 2.58457947 0.01715088 C5.2744368 0.0393121 7.96289791 0.08946641 10.65234375 0.140625 C12.49021496 0.16071634 14.32810732 0.17896246 16.16601562 0.1953125 C20.64115241 0.23910986 25.11526246 0.30799192 29.58984375 0.390625 C24.86377586 10.03638281 19.96904216 19.49810369 14.52734375 28.765625 C13.2134141 31.02336327 11.89961578 33.28117796 10.5859375 35.5390625 C9.92319824 36.6744043 9.26045898 37.80974609 8.57763672 38.97949219 C5.39618001 44.43900006 2.24412435 49.91538727 -0.91015625 55.390625 C-2.15351912 57.54564603 -3.39700907 59.70059374 -4.640625 61.85546875 C-7.86026533 67.4358988 -11.07580704 73.01868181 -14.29077148 78.60180664 C-16.17882277 81.87708529 -18.0713679 85.14973007 -19.96484375 88.421875 C-22.09249368 92.09935239 -24.20333559 95.78517944 -26.29296875 99.484375 C-38.09284105 120.23807399 -38.09284105 120.23807399 -49.41015625 124.390625 C-50.26351562 124.732146 -51.116875 125.07366699 -51.99609375 125.42553711 C-56.14384777 126.59802507 -59.80742375 126.64273058 -64.08984375 126.5859375 C-64.90260773 126.5831076 -65.7153717 126.58027771 -66.55276489 126.57736206 C-69.130383 126.56623119 -71.70764444 126.54114015 -74.28515625 126.515625 C-76.04035954 126.50558601 -77.79556831 126.49646177 -79.55078125 126.48828125 C-83.83737551 126.46631515 -88.12370555 126.43183478 -92.41015625 126.390625 C-91.31709021 122.92143502 -90.21684777 119.73511086 -88.34375 116.61328125 C-87.94542969 115.94304932 -87.54710937 115.27281738 -87.13671875 114.58227539 C-86.71132812 113.87965576 -86.2859375 113.17703613 -85.84765625 112.453125 C-85.18056641 111.33442017 -85.18056641 111.33442017 -84.5 110.19311523 C-82.38172495 106.64598242 -80.24211004 103.11184563 -78.1015625 99.578125 C-74.1827318 93.10066139 -70.37271801 86.5864598 -66.72265625 79.953125 C-62.2620258 71.84854983 -57.63107197 63.85149738 -52.95239258 55.87109375 C-49.74149493 50.39227421 -46.54824366 44.90423954 -43.390625 39.39453125 C-43.05694412 38.81299286 -42.72326324 38.23145447 -42.37947083 37.6322937 C-40.76934126 34.82589374 -39.16208461 32.01792767 -37.55981445 29.20703125 C-28.58862907 13.56762265 -19.88381938 -0.50891535 0 0 Z " fill="#2BE5CF" transform="translate(124.41015625,35.609375)"/>
<path d="M0 0 C8.61114913 6.19196342 13.95595625 14.9036905 16.015625 25.2890625 C17.91474481 38.949398 16.41459739 52.24584268 8.07421875 63.56640625 C1.93829144 70.89089091 -5.9971257 75.68995252 -15.62890625 76.87109375 C-26.83060132 77.08734269 -37.26843899 75.22819302 -45.73828125 67.48046875 C-56.46687329 56.11728346 -57.10344512 43.91610351 -56.8828125 28.9453125 C-56.61206343 22.34354771 -54.99779135 17.12863452 -51.5390625 11.4921875 C-51.09304688 10.739375 -50.64703125 9.9865625 -50.1875 9.2109375 C-45.44453943 2.10974513 -38.21003208 -2.66315699 -30.04296875 -5.03515625 C-19.45302295 -7.03419438 -9.28674969 -5.51490059 0 0 Z " fill="#363636" transform="translate(519.5390625,64.5078125)"/>
<path d="M0 0 C1.58206057 0.00667536 3.16410534 0.0186375 4.74609375 0.03515625 C5.55240234 0.03966797 6.35871094 0.04417969 7.18945312 0.04882812 C9.18753131 0.06065107 11.18557158 0.07858711 13.18359375 0.09765625 C13.61889404 1.26369385 14.05419434 2.42973145 14.50268555 3.63110352 C16.62298778 9.30839045 18.74681013 14.98435805 20.87109375 20.66015625 C21.26343201 21.70899994 21.65577026 22.75784363 22.05999756 23.83847046 C27.00602329 37.05446395 31.9958104 50.25263636 37.0546875 63.42578125 C37.54125013 64.69386939 38.02777682 65.96197133 38.51426697 67.23008728 C40.87871094 73.39175013 43.24922586 79.55100781 45.62768555 85.70727539 C46.49286445 87.95842359 47.35786392 90.20964076 48.22265625 92.4609375 C48.8260508 94.01394562 48.8260508 94.01394562 49.44163513 95.59832764 C49.80459183 96.54596985 50.16754852 97.49361206 50.54150391 98.4699707 C50.86027496 99.29560013 51.17904602 100.12122955 51.50747681 100.97187805 C52.18359375 103.09765625 52.18359375 103.09765625 52.18359375 106.09765625 C45.91359375 106.09765625 39.64359375 106.09765625 33.18359375 106.09765625 C31.84637958 102.47404465 30.51366209 98.84888988 29.18359375 95.22265625 C28.80203125 94.19011719 28.42046875 93.15757813 28.02734375 92.09375 C27.66640625 91.10761719 27.30546875 90.12148437 26.93359375 89.10546875 C26.43085938 87.73865967 26.43085938 87.73865967 25.91796875 86.34423828 C25.18359375 84.09765625 25.18359375 84.09765625 25.18359375 82.09765625 C11.32359375 82.09765625 -2.53640625 82.09765625 -16.81640625 82.09765625 C-17.80640625 85.72765625 -18.79640625 89.35765625 -19.81640625 93.09765625 C-21.39324495 97.80152154 -23.10949491 102.43824961 -24.81640625 107.09765625 C-31.08640625 107.09765625 -37.35640625 107.09765625 -43.81640625 107.09765625 C-42.98871685 102.13151986 -41.79909927 97.98680094 -39.9921875 93.36328125 C-39.69793884 92.59626389 -39.40369019 91.82924652 -39.1005249 91.03898621 C-38.11509141 88.47321279 -37.12194152 85.91049608 -36.12890625 83.34765625 C-35.06336568 80.57987994 -33.99986113 77.8113268 -32.93650818 75.04270935 C-32.1672456 73.03999736 -31.39733887 71.03753269 -30.62684631 69.03529358 C-27.35256884 60.51922031 -24.11889835 51.98817681 -20.89453125 43.453125 C-20.39046806 42.11960692 -19.88637368 40.78610063 -19.38224792 39.4526062 C-17.38098397 34.15838308 -15.37974822 28.8641524 -13.38296509 23.5682373 C-11.97957594 19.84647181 -10.57192681 16.12632505 -9.1640625 12.40625 C-8.7387323 11.27591843 -8.3134021 10.14558685 -7.87518311 8.98100281 C-7.48590637 7.95400772 -7.09662964 6.92701263 -6.69555664 5.86889648 C-6.35520889 4.96743393 -6.01486115 4.06597137 -5.66419983 3.13719177 C-4.20910328 -0.36333144 -4.21029457 0.10773528 0 0 Z " fill="#363636" transform="translate(237.81640625,32.90234375)"/>
<path d="M0 0 C6.27 0 12.54 0 19 0 C20.41860225 4.22852594 21.83492282 8.45779438 23.25 12.6875 C23.64574219 13.86634766 24.04148437 15.04519531 24.44921875 16.25976562 C28.18649593 27.44096374 31.63368268 38.70243506 35 50 C36.98868939 44.82100163 38.79433379 39.63559276 40.375 34.31640625 C40.58560059 33.61660141 40.79620117 32.91679657 41.01318359 32.19578552 C41.67801418 29.98544868 42.33926742 27.77406495 43 25.5625 C43.6612142 23.35465537 44.32325263 21.1470658 44.98681641 18.93992615 C45.39681697 17.57567241 45.80546146 16.21100998 46.21240234 14.84584045 C47.70963234 9.85619629 49.35031614 4.94905158 51 0 C57.27 0 63.54 0 70 0 C67.9491846 6.96138983 65.75040243 13.84976538 63.41015625 20.71875 C62.89899261 22.22557091 62.89899261 22.22557091 62.37750244 23.76283264 C58.98888052 33.74187599 55.57838635 43.71350074 52.16210938 53.68310547 C50.81140314 57.62554444 49.46554188 61.56954402 48.12695312 65.51611328 C46.77897658 69.48991149 45.41914094 73.45940667 44.04806519 77.42529297 C43.56454356 78.83017976 43.08534545 80.2365634 42.61087036 81.64453125 C39.09181051 92.07090662 35.25875015 101.49917542 26 108 C22.00070718 109.97206508 18.74948434 110.24315203 14.3125 110.1875 C12.60513672 110.17783203 12.60513672 110.17783203 10.86328125 110.16796875 C8 110 8 110 6 109 C6 104.71 6 100.42 6 96 C8.3203125 95.5978125 8.3203125 95.5978125 10.6875 95.1875 C17.37566675 93.87362638 17.37566675 93.87362638 22.1484375 89.2734375 C24.90792776 84.2045866 26.73812145 79.28875954 25.44247437 73.51589966 C24.51639887 70.55136644 23.49884121 67.63512944 22.44140625 64.71484375 C22.05943588 63.62273087 21.67746552 62.53061798 21.28392029 61.40541077 C20.05771821 57.91088638 18.81039934 54.42432727 17.5625 50.9375 C16.75708579 48.65087544 15.95303643 46.36376966 15.15039062 44.07617188 C12.02419633 35.1922576 8.85719498 26.32385862 5.61669922 17.48095703 C5.24318832 16.46095108 4.86967743 15.44094513 4.48484802 14.39002991 C3.77921003 12.46794892 3.0704275 10.54701855 2.35804749 8.62742615 C2.04645187 7.78043655 1.73485626 6.93344696 1.41381836 6.06079102 C1.13952499 5.32103531 0.86523163 4.5812796 0.58262634 3.81910706 C0 2 0 2 0 0 Z " fill="#353535" transform="translate(347,61)"/>
<path d="M0 0 C0 4.62 0 9.24 0 14 C-3.25520833 14.13020833 -6.51041667 14.26041667 -9.765625 14.390625 C-13.5031141 15.09478961 -14.67776096 16.05849722 -17 19 C-18.35091528 21.70183055 -18.33858058 24.11808206 -18.5625 27.125 C-18.706875 29.06375 -18.85125 31.0025 -19 33 C-13.72 33 -8.44 33 -3 33 C-3 37.62 -3 42.24 -3 47 C-8.28 47 -13.56 47 -19 47 C-19 68.78 -19 90.56 -19 113 C-24.94 113 -30.88 113 -37 113 C-37 91.22 -37 69.44 -37 47 C-40.96 47 -44.92 47 -49 47 C-49 42.71 -49 38.42 -49 34 C-45.04 34 -41.08 34 -37 34 C-37.04640625 33.03320312 -37.0928125 32.06640625 -37.140625 31.0703125 C-37.39213948 21.99782578 -37.213429 14.3376853 -31.375 6.94140625 C-23.30353306 -1.14687624 -10.7443348 -2.6860837 0 0 Z " fill="#373737" transform="translate(594,27)"/>
<path d="M0 0 C5.94 0 11.88 0 18 0 C18 6.6 18 13.2 18 20 C22.62 20 27.24 20 32 20 C32 24.29 32 28.58 32 33 C27.38 33 22.76 33 18 33 C18.09344022 39.78125305 18.1995134 46.56214507 18.31738281 53.34301758 C18.35570416 55.65057944 18.39055141 57.95820168 18.421875 60.26586914 C18.46745682 63.57980963 18.52546288 66.89333327 18.5859375 70.20703125 C18.59748871 71.2414888 18.60903992 72.27594635 18.62094116 73.3417511 C18.64081085 74.3025206 18.66068054 75.2632901 18.68115234 76.25317383 C18.69447601 77.09922684 18.70779968 77.94527985 18.7215271 78.81697083 C18.87258289 81.29091009 18.87258289 81.29091009 21 84 C23.6556728 84.58348752 23.6556728 84.58348752 26.625 84.6875 C28.39875 84.790625 30.1725 84.89375 32 85 C32 89.62 32 94.24 32 99 C24.88563964 100.42287207 17.46469102 101.17552017 10.5 98.8125 C4.862073 94.72500292 1.70650039 90.80917267 0 84 C-0.38484081 80.01408075 -0.35064108 76.0638159 -0.29296875 72.0625 C-0.28872391 70.94182129 -0.28447906 69.82114258 -0.28010559 68.66650391 C-0.26340311 65.11075126 -0.22576568 61.55557941 -0.1875 58 C-0.17244231 55.57943531 -0.1587558 53.15886167 -0.14648438 50.73828125 C-0.11352706 44.82529935 -0.06180241 38.91274792 0 33 C-4.29 33 -8.58 33 -13 33 C-13 28.38 -13 23.76 -13 19 C-8.71 19 -4.42 19 0 19 C0 12.73 0 6.46 0 0 Z " fill="#373737" transform="translate(608,41)"/>
<path d="M0 0 C5.61 0 11.22 0 17 0 C17 36.96 17 73.92 17 112 C11.39 112 5.78 112 0 112 C0 75.04 0 38.08 0 0 Z " fill="#333333" transform="translate(429,27)"/>
<path d="M0 0 C0.66 0.33 1.32 0.66 2 1 C2 6.28 2 11.56 2 17 C-0.97 17.0928125 -0.97 17.0928125 -4 17.1875 C-10.08445884 17.63918472 -14.42957347 18.87891316 -19 23 C-20.28843205 25.5768641 -20.16003433 27.48218759 -20.20532227 30.36767578 C-20.22526749 31.48868683 -20.24521271 32.60969788 -20.26576233 33.76467896 C-20.29083107 35.58659256 -20.29083107 35.58659256 -20.31640625 37.4453125 C-20.33718735 38.68546112 -20.35796844 39.92560974 -20.37937927 41.20333862 C-20.43377705 44.50111823 -20.48400095 47.7989272 -20.53222656 51.09680176 C-20.58245234 54.46172653 -20.63813277 57.8265605 -20.69335938 61.19140625 C-20.80061561 67.79420082 -20.90186786 74.39706377 -21 81 C-26.94 81 -32.88 81 -39 81 C-39 54.93 -39 28.86 -39 2 C-33.39 2 -27.78 2 -22 2 C-21.67 4.31 -21.34 6.62 -21 9 C-20.278125 8.236875 -19.55625 7.47375 -18.8125 6.6875 C-12.83381915 0.9745383 -8.00920654 -0.25426052 0 0 Z " fill="#373737" transform="translate(340,59)"/>
<path d="M0 0 C6.51204869 4.43373528 10.25723955 9.2467982 11.9375 17 C13.10069447 28.19967647 12.81380452 38.80577534 5.625 47.9375 C0.78090135 51.65506408 -3.974272 53.65059297 -10.0859375 53.33203125 C-15.00557729 52.50560955 -17.88700821 50.56996989 -20.796875 46.68359375 C-26.90180908 36.93023478 -27.56620633 25.95910804 -25.44921875 14.75390625 C-23.35250501 8.09430007 -19.90999567 3.81828259 -14.0625 0 C-9.17291068 -1.62986311 -4.83813751 -1.5798 0 0 Z " fill="#FBFBFB" transform="translate(506.0625,74)"/>
<path d="M0 0 C0.66 0 1.32 0 2 0 C3.9997847 5.63959039 5.99345162 11.28129122 7.98144531 16.92504883 C8.65879704 18.84524031 9.33782562 20.76484112 10.01855469 22.68383789 C10.99594039 25.44003709 11.96730355 28.19829451 12.9375 30.95703125 C13.24373291 31.81649857 13.54996582 32.67596588 13.86547852 33.56147766 C14.14576904 34.36208115 14.42605957 35.16268463 14.71484375 35.98754883 C14.96355225 36.6914827 15.21226074 37.39541656 15.46850586 38.12068176 C16 40 16 40 16 43 C6.1 43 -3.8 43 -14 43 C-12.65931677 36.96692548 -11.25937423 31.4341489 -9.1796875 25.68359375 C-8.91616486 24.94166275 -8.65264221 24.19973175 -8.38113403 23.43531799 C-7.55071797 21.100907 -6.7130093 18.76919446 -5.875 16.4375 C-5.30550184 14.84066866 -4.73648717 13.24366479 -4.16796875 11.64648438 C-2.78421719 7.76230965 -1.39392589 3.88053444 0 0 Z " fill="#F9F9F9" transform="translate(241,57)"/>
<path d="M0 0 C1.18797432 0.00212242 1.18797432 0.00212242 2.39994812 0.00428772 C4.91641094 0.00986168 7.43278306 0.02240932 9.94921875 0.03515625 C11.660806 0.04017462 13.37239466 0.04473694 15.08398438 0.04882812 C19.26826383 0.05982257 23.45247594 0.07706918 27.63671875 0.09765625 C27.63671875 0.42765625 27.63671875 0.75765625 27.63671875 1.09765625 C26.84088379 1.0912915 26.04504883 1.08492676 25.22509766 1.07836914 C21.56971565 1.06960897 17.91681034 1.11451325 14.26171875 1.16015625 C13.01003906 1.14919922 11.75835937 1.13824219 10.46875 1.12695312 C1.70476111 1.28754978 -3.94416028 2.95905104 -10.36328125 9.09765625 C-10.69328125 9.75765625 -11.02328125 10.41765625 -11.36328125 11.09765625 C-13.18359375 11.9921875 -13.18359375 11.9921875 -15.48828125 12.91015625 C-19.95787368 14.80526344 -23.51583078 17.15067291 -27.36328125 20.09765625 C-29.23828125 19.47265625 -29.23828125 19.47265625 -31.36328125 18.09765625 C-32.61328125 14.97265625 -32.61328125 14.97265625 -33.36328125 12.09765625 C-22.73756914 4.04924452 -13.39966877 -0.09080227 0 0 Z " fill="#E8F1F2" transform="translate(126.36328125,25.90234375)"/>
<path d="M0 0 C11.0338692 -0.65547738 19.78611768 -1.05666384 29 6 C29.99 6.99 29.99 6.99 31 8 C30.625 10.125 30.625 10.125 30 12 C29.401875 11.525625 28.80375 11.05125 28.1875 10.5625 C24.19253004 7.70895003 20.39668994 7.83344244 15.68286133 7.79467773 C14.94115189 7.78477814 14.19944244 7.77487854 13.43525696 7.76467896 C10.98421417 7.73309743 8.533152 7.70831979 6.08203125 7.68359375 C4.38237505 7.66302133 2.68272393 7.64202478 0.983078 7.62062073 C-3.49014163 7.5654298 -7.96340721 7.51600738 -12.43670654 7.46777344 C-17.00146574 7.41753668 -21.56615823 7.36186196 -26.13085938 7.30664062 C-35.08718259 7.19909548 -44.04356373 7.0976424 -53 7 C-53 6.67 -53 6.34 -53 6 C-35.18 6 -17.36 6 1 6 C0.505 3.03 0.505 3.03 0 0 Z " fill="#EBF2F3" transform="translate(115,0)"/>
<path d="M0 0 C3.1985654 1.74952846 5.02024638 3.15341645 7.05859375 6.2109375 C6.18359375 9.8984375 6.18359375 9.8984375 5.05859375 13.2109375 C4.39859375 12.2209375 3.73859375 11.2309375 3.05859375 10.2109375 C0.2122172 6.56830889 0.2122172 6.56830889 -3.90625 4.75 C-7.25447186 4.5878887 -9.50972612 4.92693741 -12.31640625 6.7734375 C-14.33155309 9.79615776 -15.12859339 12.68874843 -15.94140625 16.2109375 C-17.94140625 15.2109375 -17.94140625 15.2109375 -18.57421875 13.36328125 C-18.73664063 12.63238281 -18.8990625 11.90148437 -19.06640625 11.1484375 C-19.23398437 10.41496094 -19.4015625 9.68148437 -19.57421875 8.92578125 C-19.69539063 8.35988281 -19.8165625 7.79398438 -19.94140625 7.2109375 C-18.67568392 6.05946089 -17.40362719 4.91494436 -16.12890625 3.7734375 C-15.42121094 3.13535156 -14.71351563 2.49726562 -13.984375 1.83984375 C-9.9407691 -1.38421679 -4.81693026 -1.95778654 0 0 Z " fill="#F0F0F0" transform="translate(388.94140625,63.7890625)"/>
<path d="M0 0 C0.99 0.66 1.98 1.32 3 2 C3 2.99 3 3.98 3 5 C-0.03412739 5.73554603 -2.41389767 5.97821591 -5.5625 5.8125 C-9.00537231 5.70212449 -9.00537231 5.70212449 -11.375 7.625 C-13.49362409 10.36359773 -13.49362409 10.36359773 -14 16 C-8.72 16 -3.44 16 2 16 C2 16.33 2 16.66 2 17 C-4.27 17 -10.54 17 -17 17 C-17.33 17.66 -17.66 18.32 -18 19 C-19 18 -19 18 -19.3125 14.3125 C-19.23237451 9.83348525 -18.01561426 7.40223148 -15 4 C-10.18719228 0.07664788 -6.10634752 -0.61063475 0 0 Z " fill="#E6E6E6" transform="translate(415,44)"/>
<path d="M0 0 C8.25 0 16.5 0 25 0 C22.71953804 4.56092392 21.5108365 5.74458175 17 8 C12.59555322 8.85621865 8.7560327 9.0230528 4.80078125 6.71875 C3.00727402 5.23446815 1.4346276 3.83366309 0 2 C0 1.34 0 0.68 0 0 Z " fill="#F0F0F0" transform="translate(496,0)"/>
<path d="M0 0 C4.62 0 9.24 0 14 0 C10.66830249 3.33169751 9.58562559 3.81657498 5 4 C2.125 2.625 2.125 2.625 0 1 C0 0.67 0 0.34 0 0 Z " fill="#FDFDFD" transform="translate(502,0)"/>
<path d="M0 0 C1.32 0 2.64 0 4 0 C4.38218767 1.65614657 4.71395102 3.32457024 5 5 C4 6 4 6 1.4375 6.0625 C0.2309375 6.0315625 0.2309375 6.0315625 -1 6 C-1.625 4.125 -1.625 4.125 -2 2 C-1.34 1.34 -0.68 0.68 0 0 Z " fill="#F1F1F1" transform="translate(495,12)"/>
<path d="M0 0 C0.33 1.65 0.66 3.3 1 5 C-0.65 5.66 -2.3 6.32 -4 7 C-4.33 5.02 -4.66 3.04 -5 1 C-3 0 -3 0 0 0 Z " fill="#F1F1F1" transform="translate(567,174)"/>
<path d="M0 0 C1.98 0 3.96 0 6 0 C5.67 1.32 5.34 2.64 5 4 C3.0625 3.6875 3.0625 3.6875 1 3 C0.67 2.01 0.34 1.02 0 0 Z " fill="#F1F1F1" transform="translate(147,0)"/>
<path d="M0 0 C0.99 0.33 1.98 0.66 3 1 C3 1.99 3 2.98 3 4 C1.02 4 -0.96 4 -3 4 C-2.67 3.01 -2.34 2.02 -2 1 C-1.34 0.67 -0.68 0.34 0 0 Z " fill="#F1F1F1" transform="translate(200,187)"/>
<path d="M0 0 C2.125 0.9375 2.125 0.9375 4 2 C4 2.66 4 3.32 4 4 C2.02 4 0.04 4 -2 4 C-2 3.01 -2 2.02 -2 1 C-1.34 0.67 -0.68 0.34 0 0 Z " fill="#F1F1F1" transform="translate(561,187)"/>
</svg>
